STARTFONT 2.1
FONT -Monotype-Nimrod-Bold-I-Normal--50-360-100-100-P-357-iso8859-5
SIZE 36 100 100
FONTBOUNDINGBOX 78 61 -10 -13

STARTPROPERTIES 24
FOUNDRY "Monotype"
FAMILY_NAME "Nimrod"
WEIGHT_NAME "Bold"
SLANT "I"
SETWIDTH_NAME "Normal"
ADD_STYLE_NAME ""
PIXEL_SIZE 50
POINT_SIZE 360
RESOLUTION_X 100
RESOLUTION_Y 100
SPACING "P"
AVERAGE_WIDTH 357
CHARSET_REGISTRY "iso8859"
CHARSET_ENCODING "5"
FACE_NAME "Nimrod Bold Inclined ISO Latin Cyrillic"
_DEC_DEVICE_FONTNAMES "PS=nimrod-bin-latcyrillic"
COPYRIGHT "Copyright (c) 1993 Monotype Typography Ltd."
CAP_HEIGHT 47
X_HEIGHT 35
WEIGHT 10
QUAD_WIDTH 37
DEFAULT_CHAR 160
FONT_DESCENT 14
FONT_ASCENT 50
ENDPROPERTIES

CHARS 191

STARTCHAR space
ENCODING 32
SWIDTH 250 0
DWIDTH 13 0
BBX 0 0 0 0
BITMAP
ENDCHAR

STARTCHAR exclam
ENCODING 33
SWIDTH 375 0
DWIDTH 19 0
BBX 19 39 0 -1
BITMAP
000600
001F80
003FC0
003FC0
007FC0
007FC0
007F80
007F80
007F00
007F00
007E00
007E00
007C00
007C00
00F800
00F800
00F000
00F000
00E000
00E000
00E000
01C000
01C000
018000
018000
038000
030000
000000
000000
000000
0E0000
1F8000
3F8000
7FC000
7FC000
7FC000
3F8000
1F8000
0E0000
ENDCHAR

STARTCHAR quotedbl
ENCODING 34
SWIDTH 552 0
DWIDTH 28 0
BBX 23 16 7 18
BITMAP
070070
1F81F8
1F83F8
3F83F8
3F87F8
3F07F0
7F07F0
7E07E0
7E07C0
7C07C0
7C0780
780780
780700
700700
600600
600600
ENDCHAR

STARTCHAR numbersign
ENCODING 35
SWIDTH 667 0
DWIDTH 33 0
BBX 32 34 1 -1
BITMAP
001C00F0
001C00E0
003C00E0
003C01E0
003801E0
003801C0
003801C0
007801C0
007803C0
7FFFFFFC
7FFFFFFC
7FFFFFFC
7FFFFFFC
00E00780
00E00780
00E00700
01E00700
01E00700
01C00F00
01C00F00
01C00E00
7FFFFFFC
7FFFFFFC
7FFFFFFC
7FFFFFFC
03801C00
07801C00
07803C00
07003C00
07003800
0F003800
0F003800
0F007800
0E007800
ENDCHAR

STARTCHAR dollar
ENCODING 36
SWIDTH 510 0
DWIDTH 26 0
BBX 31 45 -1 -7
BITMAP
00000E00
00000E00
00000C00
0001FF00
0007FFC0
000F9FE0
001E18F0
003C3878
007C387C
007830FC
00F831FC
00FC71FC
00FC71FC
00FE60F8
00FFE070
00FFE000
007FE000
007FE000
003FF000
001FF800
001FFC00
000FFC00
0007FE00
0003FF00
0003FF00
0007FF80
06077F80
1F063F80
1F861F80
3F8E1F80
3F8E1F80
3F0C1F00
3E0C1F00
3E1C3F00
1E187E00
1F18FC00
0FFFF800
03FFE000
00FF0000
00300000
00700000
00700000
00600000
00600000
00E00000
ENDCHAR

STARTCHAR percent
ENCODING 37
SWIDTH 1000 0
DWIDTH 50 0
BBX 39 37 9 -2
BITMAP
007E0001C0
01FF800180
03E7C00380
07E7C00700
0FC7C00E00
1FC7E00C00
1F87E01C00
3F87E03800
3F0FC07000
3F0FC0E000
3F0FC0C000
7F1FC1C000
7E1F838000
7E3F870000
7E3F0E0000
3E3E0E0000
3E7C1C0000
1FF8380FC0
07E0703FF0
0000607CF8
0000E0FCF8
0001C1F8FC
000383F8FC
000703F0FC
000603F0FC
000E07E1FC
001C07E1F8
003807E1F8
003007E3F8
00700FC3F0
00E007C7F0
01C007C7E0
038007C7C0
030007CF80
070003FF00
0E0000FC00
1C00000000
ENDCHAR

STARTCHAR ampersand
ENCODING 38
SWIDTH 927 0
DWIDTH 46 0
BBX 46 39 1 -1
BITMAP
000007FC0000
00001FFF8000
00007F0FC000
0000FE07C000
0000FC03E000
0001FC03E000
0001F803E000
0003F803E000
0003F803E000
0003F807C000
0003F80FC000
0003F81F8000
0003FC3F0000
0003FDFC0000
0003FFF80000
0001FFC00000
0007FE000000
003FFE000000
00FFFE03FFF0
03FCFF03FFF0
07F0FF007F80
0FE0FF003E00
1FE07F803C00
3FC07F803800
3FC03FC07800
7F803FC07000
7F803FE0E000
7F801FE1C000
7F801FF38000
7F800FF78000
7F8007FF0000
7FC007FC00C0
3FC003FE01C0
3FE001FF03C0
1FF003FF8780
0FFE1FFFFF00
07FFFE7FFE00
03FFF81FFC00
00FFE007E000
ENDCHAR

STARTCHAR quoteright
ENCODING 39
SWIDTH 323 0
DWIDTH 16 0
BBX 13 15 6 23
BITMAP
0380
0FE0
0FE0
1FF0
1FF0
1FF0
0FF0
0FE0
03E0
01C0
03C0
0780
1F00
7C00
7000
ENDCHAR

STARTCHAR parenleft
ENCODING 40
SWIDTH 385 0
DWIDTH 19 0
BBX 25 47 0 -9
BITMAP
00001E00
00003C00
00007800
0001F000
0003E000
0007C000
000F8000
001F8000
003F0000
007E0000
00FE0000
01FC0000
01FC0000
03F80000
07F80000
07F80000
0FF00000
0FF00000
0FE00000
1FE00000
1FE00000
1FE00000
3FC00000
3FC00000
3FC00000
3FC00000
3FC00000
3F800000
3F800000
3F800000
3F800000
3F800000
1F800000
1F800000
1F800000
0F800000
0F800000
0FC00000
07C00000
07C00000
03C00000
03C00000
01E00000
00E00000
00F00000
00700000
00380000
ENDCHAR

STARTCHAR parenright
ENCODING 41
SWIDTH 385 0
DWIDTH 19 0
BBX 25 47 -5 -9
BITMAP
00070000
00070000
00038000
0003C000
0003E000
0001E000
0001F000
0001F000
0001F800
0000F800
0000F800
0000FC00
0000FC00
0000FC00
0000FE00
0000FE00
0000FE00
0000FE00
0000FE00
0000FE00
0001FE00
0001FE00
0001FE00
0001FE00
0001FE00
0003FC00
0003FC00
0003FC00
0003F800
0007F800
0007F000
000FF000
000FE000
001FE000
001FC000
003F8000
003F0000
007F0000
007E0000
00FC0000
01F80000
03E00000
03C00000
07800000
0F000000
1C000000
38000000
ENDCHAR

STARTCHAR asterisk
ENCODING 42
SWIDTH 552 0
DWIDTH 28 0
BBX 27 23 4 15
BITMAP
0007C000
0007E000
000FE000
000FE000
1F0FE000
3F8FC000
3F878000
3FC70000
3FE70F00
1FE63F80
07F47FC0
001FFFC0
001DFFC0
00FE3F80
07F60700
0FE78000
1FE7C000
0FC7E000
0FC7F000
0F87F000
0707F000
0007F000
0003E000
ENDCHAR

STARTCHAR plus
ENCODING 43
SWIDTH 667 0
DWIDTH 33 0
BBX 30 26 2 3
BITMAP
00078000
00078000
00078000
00078000
00078000
00078000
00078000
00078000
00078000
00078000
00078000
3FFFFFF0
3FFFFFF0
3FFFFFF0
3FFFFFF0
00078000
00078000
00078000
00078000
00078000
00078000
00078000
00078000
00078000
00078000
00078000
ENDCHAR

STARTCHAR comma
ENCODING 44
SWIDTH 323 0
DWIDTH 16 0
BBX 13 15 -2 -7
BITMAP
07C0
0FE0
0FE0
1FF0
1FF0
1FF0
0FF0
07E0
03E0
01C0
03C0
0780
1E00
7C00
7000
ENDCHAR

STARTCHAR minus
ENCODING 45
SWIDTH 667 0
DWIDTH 33 0
BBX 30 4 2 14
BITMAP
7FFFFFF0
7FFFFFF0
7FFFFFF0
7FFFFFF0
ENDCHAR

STARTCHAR period
ENCODING 46
SWIDTH 323 0
DWIDTH 16 0
BBX 11 9 -1 -1
BITMAP
0E00
1F80
3F80
7FC0
7FC0
7FC0
3F80
1F80
0E00
ENDCHAR

STARTCHAR slash
ENCODING 47
SWIDTH 552 0
DWIDTH 28 0
BBX 28 42 0 -1
BITMAP
000003C0
000003C0
00000780
00000780
00000F00
00000F00
00001E00
00001E00
00003C00
00003C00
00007800
00007800
0000F000
0000F000
0001E000
0001E000
0003C000
0003C000
00078000
00078000
000F0000
000F0000
001E0000
001E0000
003C0000
003C0000
00780000
00780000
00F00000
00F00000
01E00000
01E00000
03C00000
03C00000
07800000
07800000
0F000000
0F000000
1E000000
1E000000
3C000000
3C000000
ENDCHAR

STARTCHAR zero
ENCODING 48
SWIDTH 562 0
DWIDTH 28 0
BBX 30 36 1 -1
BITMAP
0000FC00
0007FF00
000FFFC0
003F87C0
007F03E0
00FE03F0
00FE03F0
01FC03F0
03FC03F8
03F803F8
07F803F8
07F803F8
0FF003F8
0FF007F8
0FF007F8
1FE007F0
1FE007F0
1FE00FF0
1FC00FF0
3FC00FF0
3FC01FE0
3FC01FE0
3F801FE0
3F803FC0
3F803FC0
3F803F80
3F807F80
3F007F00
3F00FF00
1F00FE00
1F01FC00
1F81F800
0F83F000
07FFE000
03FF8000
007C0000
ENDCHAR

STARTCHAR one
ENCODING 49
SWIDTH 562 0
DWIDTH 28 0
BBX 26 35 1 0
BITMAP
00000700
00001F00
0000FE00
003FFE00
007FFE00
007FFE00
0001FC00
0001FC00
0001FC00
0003FC00
0003F800
0003F800
0003F800
0007F000
0007F000
0007F000
0007F000
000FE000
000FE000
000FE000
001FC000
001FC000
001FC000
001FC000
003F8000
003F8000
003F8000
003F8000
007F0000
007F0000
007F0000
00FF0000
3FFFFC00
3FFFF800
3FFFF800
ENDCHAR

STARTCHAR two
ENCODING 50
SWIDTH 562 0
DWIDTH 28 0
BBX 32 35 -1 0
BITMAP
0000FE00
0007FFC0
000FFFF0
001E07F8
003C03F8
003C03FC
007C01FC
007E01FC
007F01FC
007F01FC
007F03FC
007F03FC
003E07F8
000007F8
00000FF0
00001FE0
00003FC0
00007F80
0000FE00
0001FC00
0003F000
0007E000
001F8000
003F0000
007C0000
00F80070
01E00060
03C000E0
078001E0
0FFFFFC0
1FFFFFC0
3FFFFFC0
3FFFFF80
3FFFFF80
7FFFFF00
ENDCHAR

STARTCHAR three
ENCODING 51
SWIDTH 562 0
DWIDTH 28 0
BBX 30 36 0 -1
BITMAP
0001FC00
000FFF80
001FFFC0
003E07E0
007C07F0
00FC03F8
00FE03F8
00FE03F8
00FE03F8
007C03F8
003807F8
000007F0
00000FF0
00001FE0
00003FC0
007FFF00
007FF000
007FFC00
00007E00
00003F80
00003F80
00001FC0
00001FC0
06001FC0
1F801FC0
3F801FC0
3F803FC0
3F803FC0
3F003FC0
3F007F80
3E00FF00
1E01FF00
0F03FE00
07FFF800
03FFE000
003F0000
ENDCHAR

STARTCHAR four
ENCODING 52
SWIDTH 562 0
DWIDTH 28 0
BBX 30 35 1 0
BITMAP
00000078
000000F0
000001F0
000003F0
00000FF0
00001FE0
00003FE0
00007FE0
0000FFC0
0001FFC0
0003DFC0
00071FC0
000E1F80
001C3F80
00383F80
00703F80
01E07F00
03C07F00
07807F00
0F007E00
1E00FE00
3C00FE00
3FFFFFE0
3FFFFFC0
3FFFFFC0
0001FC00
0001F800
0003F800
0003F800
0003F800
0007F800
0007F800
00FFFF80
00FFFF80
00FFFF00
ENDCHAR

STARTCHAR five
ENCODING 53
SWIDTH 562 0
DWIDTH 28 0
BBX 32 36 0 -1
BITMAP
0000000E
000FFFFC
001FFFFC
001FFFFC
001FFFF8
003FFFF8
003FFFF8
00300000
00700000
00700000
00E00000
00E00000
00E3FC00
01CFFF00
01FFFF80
01F87FC0
03E03FC0
03801FE0
00000FE0
00000FE0
00000FE0
00000FE0
00000FE0
00001FE0
0F001FE0
1F801FE0
3F803FC0
3F803FC0
3F803F80
3F007F80
3E00FF00
1E01FE00
1F03FC00
0FFFF800
03FFE000
00FF0000
ENDCHAR

STARTCHAR six
ENCODING 54
SWIDTH 562 0
DWIDTH 28 0
BBX 31 36 2 -1
BITMAP
0000FF80
0003FFE0
000FE3F0
001FC1F8
003F03F8
007F03F8
00FE03F8
01FC03F8
01FC01F0
03F80000
07F80000
07F00000
07F00000
0FE3F000
0FE7FC00
1FFFFE00
1FFFFF00
1FF0FF00
1FE07F80
3FC03F80
3FC03F80
3F803F80
3F803F80
3F803F80
3F003F80
3F007F80
3F007F80
3F007F00
3F00FF00
1F00FE00
1F81FE00
0F81FC00
0FC3F800
03FFF000
01FFC000
003E0000
ENDCHAR

STARTCHAR seven
ENCODING 55
SWIDTH 562 0
DWIDTH 28 0
BBX 27 35 6 -1
BITMAP
07FFFFC0
0FFFFFC0
0FFFFFC0
0FFFFF80
1FFFFF00
1FFFFE00
1E001C00
38003800
38007800
3000F000
7001E000
0001C000
0003C000
00078000
000F0000
001F0000
003E0000
003E0000
007C0000
00FC0000
01F80000
01F80000
03F00000
07F00000
07E00000
0FE00000
0FE00000
1FE00000
1FC00000
1FC00000
3FC00000
3F800000
3F800000
1F800000
0F000000
ENDCHAR

STARTCHAR eight
ENCODING 56
SWIDTH 562 0
DWIDTH 28 0
BBX 31 36 0 -1
BITMAP
0003FF00
000FFFC0
003FC7F0
007F81F8
007F01F8
00FE01F8
00FE01FC
01FC01FC
01FC01FC
01FC01FC
01FC03F8
00FC03F8
00FC07F0
007E0FE0
001F1FC0
0007FF00
007FFC00
01FC3F00
03F81F80
0FF01FC0
0FF00FE0
1FE00FE0
1FE00FE0
3FC00FE0
3FC01FE0
3FC01FE0
3FC01FE0
3F803FC0
3F803FC0
3F803FC0
1F807F80
1FC0FF00
0FE1FE00
07FFF800
03FFE000
003F0000
ENDCHAR

STARTCHAR nine
ENCODING 57
SWIDTH 562 0
DWIDTH 28 0
BBX 31 36 0 -1
BITMAP
0001FC00
0007FF00
001FFFC0
003FC7E0
007F03E0
00FF01F0
00FE01F0
01FE01F8
01FC01F8
01FC01F8
03FC01F8
03FC01F8
03F803F8
03F803F8
03F803F8
03F807F8
03F807F8
03FC0FF8
01FE1FF0
01FFFFF0
00FFFFF0
007FCFE0
001F0FE0
00001FE0
00001FC0
00001FC0
00003F80
1F003F00
1F807F00
3F80FE00
3F80FC00
3F81F800
3F03F000
1F8FE000
0FFF8000
03FE0000
ENDCHAR

STARTCHAR colon
ENCODING 58
SWIDTH 323 0
DWIDTH 16 0
BBX 17 29 -1 -1
BITMAP
003800
007E00
00FE00
01FF00
01FF00
01FF00
00FE00
00FE00
003800
000000
000000
000000
000000
000000
000000
000000
000000
000000
000000
000000
0E0000
3F8000
3F8000
7FC000
7FC000
7FC000
3F8000
1F8000
0E0000
ENDCHAR

STARTCHAR semicolon
ENCODING 59
SWIDTH 323 0
DWIDTH 16 0
BBX 19 34 -3 -6
BITMAP
000E00
001F80
003F80
007FC0
007FC0
007FC0
003F80
001F80
000E00
000000
000000
000000
000000
000000
000000
000000
000000
000000
000000
000000
07C000
0FE000
1FF000
1FF000
1FF000
1FF000
0FF000
07E000
01E000
01C000
038000
0F0000
3E0000
780000
ENDCHAR

STARTCHAR less
ENCODING 60
SWIDTH 667 0
DWIDTH 33 0
BBX 30 25 2 4
BITMAP
00000030
000000F0
000007F0
00001FF0
00007FC0
0003FF00
000FFC00
003FE000
01FF8000
07FC0000
3FF00000
7F800000
7E000000
7F800000
7FE00000
0FF80000
03FF0000
007FC000
001FF800
0007FE00
0000FFC0
00003FF0
000007F0
000001F0
00000070
ENDCHAR

STARTCHAR equal
ENCODING 61
SWIDTH 667 0
DWIDTH 33 0
BBX 30 16 2 8
BITMAP
7FFFFFF0
7FFFFFF0
7FFFFFF0
7FFFFFF0
00000000
00000000
00000000
00000000
00000000
00000000
00000000
00000000
7FFFFFF0
7FFFFFF0
7FFFFFF0
7FFFFFF0
ENDCHAR

STARTCHAR greater
ENCODING 62
SWIDTH 667 0
DWIDTH 33 0
BBX 30 26 2 3
BITMAP
60000000
7C000000
7F000000
7FC00000
1FF80000
07FE0000
00FF8000
003FF000
0007FC00
0001FF00
00007FE0
00000FF0
000003F0
000007F0
00003FF0
0000FF80
0003FE00
001FF800
007FC000
03FF0000
0FFC0000
7FE00000
7F800000
7C000000
70000000
40000000
ENDCHAR

STARTCHAR question
ENCODING 63
SWIDTH 458 0
DWIDTH 23 0
BBX 25 38 1 -1
BITMAP
007FC000
01FFF000
03E3F800
07C1FC00
07C0FE00
0FE0FE00
0FE0FE00
0FE0FE00
07C1FE00
07C1FE00
0003FC00
0007FC00
000FF800
000FF000
001FE000
003F8000
007F0000
007C0000
00F00000
00E00000
01C00000
01C00000
01800000
03800000
03800000
03000000
00000000
00000000
00000000
0E000000
1F800000
3F800000
7FC00000
7FC00000
7FC00000
3F800000
1F800000
0E000000
ENDCHAR

STARTCHAR at
ENCODING 64
SWIDTH 833 0
DWIDTH 42 0
BBX 45 43 -2 -10
BITMAP
000007F00000
0000FFFF0000
0003E003C000
000F00006000
001C00003800
007800001C00
00E000000C00
01C000000600
038000000300
038000000300
070007000100
0E001FDF8180
0E003C5F0180
0C00787F0080
1C00F87F0080
1C01F07E0080
1801F07E0080
3803E07E0080
3807E07E0080
3807C07C0080
300FC0FC0180
300FC0FC0100
300FC1F80100
300F81F80300
301F83F80200
301F83F00600
381F85F00400
381F8FF00C00
181FDBF01800
181FF3F03060
1C1FF1F0C040
0C0FE1FF8040
0C07807C0080
060000000180
070000000300
030000000200
018000000400
00C000001800
007000003000
00380000E000
000E00038000
0003E03E0000
00007FF00000
ENDCHAR

STARTCHAR A
ENCODING 65
SWIDTH 802 0
DWIDTH 40 0
BBX 44 38 -4 0
BITMAP
000000070000
0000000F0000
0000000F8000
0000001F8000
0000003F8000
0000003F8000
0000007F8000
000000FF8000
000000FFC000
000001FFC000
000003FFC000
000003BFC000
0000073FC000
00000F1FC000
00000E1FE000
00001C1FE000
00003C1FE000
0000381FE000
0000700FE000
0000F00FE000
0000E00FF000
0001C00FF000
0003C00FF000
0003FFFFF000
0007FFFFF000
000FFFFFF000
000E0007F800
001E0007F800
003C0007F800
00380007F800
00780007F800
00F00003F800
00F00003FC00
01F00003FC00
07F80003FC00
3FFF007FFFC0
3FFF007FFFC0
3FFF007FFFC0
ENDCHAR

STARTCHAR B
ENCODING 66
SWIDTH 802 0
DWIDTH 40 0
BBX 43 37 -2 0
BITMAP
003FFFFFC000
003FFFFFF800
007FFFFFFE00
0003FE03FF00
0003FE00FF00
0003FC00FF80
0003FC007F80
0003FC007F80
0007F8007F80
0007F8007F80
0007F800FF80
000FF800FF00
000FF001FF00
000FF001FE00
000FF007FC00
001FF01FF000
001FFFFFC000
001FFFFE0000
001FFFFFC000
003FE00FF000
003FC007F800
003FC003FC00
003FC001FE00
007FC001FE00
007F8001FF00
007F8001FF00
00FF8001FF00
00FF8001FF00
00FF0001FF00
00FF0003FE00
01FF0007FE00
01FF0007FC00
01FE001FF800
03FF007FF000
3FFFFFFFE000
3FFFFFFF8000
7FFFFFF00000
ENDCHAR

STARTCHAR C
ENCODING 67
SWIDTH 740 0
DWIDTH 37 0
BBX 39 39 2 -1
BITMAP
00000FF800
00007FFF00
0001FFFFC0
0007FC07F0
001FF003F8
003FE001FC
007FC000F8
00FF8000F8
01FF000078
01FF000078
03FE000078
07FC000070
07FC000070
0FF8000070
0FF8000070
1FF8000000
1FF0000000
1FF0000000
1FF0000000
3FF0000000
3FF0000000
3FE0000000
3FE0000000
3FE0000000
3FE0000000
3FE0000000
3FE0000000
3FF00001C0
3FF00003C0
1FF0000380
1FF0000780
0FF8000F00
0FFC001E00
07FE007C00
03FF81F800
01FFFFF000
00FFFFE000
003FFF8000
0003F80000
ENDCHAR

STARTCHAR D
ENCODING 68
SWIDTH 854 0
DWIDTH 43 0
BBX 45 37 -1 0
BITMAP
003FFFFF0000
007FFFFFF000
007FFFFFFC00
0003FE01FE00
0003FC00FF00
0003FC007F80
0007FC003FC0
0007F8003FC0
0007F8001FE0
0007F8001FE0
000FF8001FF0
000FF0001FF0
000FF0001FF0
000FF0001FF0
001FF0001FF0
001FE0001FF0
001FE0001FF0
001FE0003FF0
003FE0003FE0
003FC0003FE0
003FC0003FE0
007FC0007FE0
007F80007FC0
007F80007FC0
007F8000FFC0
00FF8000FF80
00FF0001FF80
00FF0001FF00
00FF0003FE00
01FF0003FE00
01FE0007FC00
01FE000FF800
03FE003FF000
03FE00FFC000
3FFFFFFF8000
7FFFFFFE0000
7FFFFFE00000
ENDCHAR

STARTCHAR E
ENCODING 69
SWIDTH 740 0
DWIDTH 37 0
BBX 43 37 -2 0
BITMAP
003FFFFFFF80
003FFFFFFF80
003FFFFFFF00
0003FE007F00
0003FE001F00
0003FC001F00
0003FC000E00
0003FC000E00
0007FC000E00
0007F8000E00
0007F8060C00
0007F80E1C00
000FF80E0000
000FF01E0000
000FF03C0000
000FF0FC0000
001FFFFC0000
001FFFF80000
001FFFF80000
003FE1F80000
003FC0F80000
003FC0F00000
003FC0700000
007FC0700000
007F80701800
007F80E03800
007F80E03800
00FF80007800
00FF00007000
00FF0000F000
01FF0001F000
01FE0003E000
01FE000FE000
03FF007FE000
3FFFFFFFC000
3FFFFFFFC000
3FFFFFFFC000
ENDCHAR

STARTCHAR F
ENCODING 70
SWIDTH 729 0
DWIDTH 36 0
BBX 43 37 -2 0
BITMAP
003FFFFFFF80
003FFFFFFF80
003FFFFFFF80
0003FE007F80
0003FE001F00
0003FC001F00
0003FC000F00
0003FC000F00
0007FC000F00
0007F8000700
0007F8070600
0007F8060600
000FF80E0000
000FF00E0000
000FF01E0000
001FF07C0000
001FFFFC0000
001FFFFC0000
001FFFF80000
003FE1F80000
003FC0F80000
003FC0780000
003FC0700000
007FC0700000
007F80700000
007F80700000
007F80600000
00FF00000000
00FF00000000
00FF00000000
01FF00000000
01FE00000000
01FE00000000
03FE00000000
3FFFFC000000
3FFFFC000000
3FFFFC000000
ENDCHAR

STARTCHAR G
ENCODING 71
SWIDTH 854 0
DWIDTH 43 0
BBX 41 39 3 -1
BITMAP
00000FF80000
00007FFF0000
0003FFFFE000
0007F80FF000
001FF003FC00
003FC001FC00
007F8000FC00
00FF0000F800
01FF00007800
03FE00007800
07FC00007800
07FC00003800
0FF800003800
0FF800003800
1FF800003000
1FF000000000
3FF000000000
3FF000000000
3FE000000000
3FE000000000
7FE000000000
7FE001FFFF00
7FC001FFFF00
7FC003FFFE00
7FC0001FF000
7FC0001FE000
7FC0001FE000
7FC0001FE000
3FC0003FC000
3FC0003FC000
3FC0003FC000
1FE0007FC000
1FE0007F8000
0FF0007F8000
07F801FF8000
03FC07FE0000
01FFFFF80000
003FFFC00000
0007F8000000
ENDCHAR

STARTCHAR H
ENCODING 72
SWIDTH 865 0
DWIDTH 43 0
BBX 51 37 -2 0
BITMAP
003FFFF0FFFFC0
003FFFF1FFFF80
007FFFF1FFFF80
0003FE001FF800
0003FE000FF000
0003FC001FF000
0003FC001FF000
0007FC001FE000
0007FC001FE000
0007F8003FE000
0007F8003FC000
000FF8003FC000
000FF0003FC000
000FF0007FC000
000FF0007F8000
001FF0007F8000
001FFFFFFF8000
001FFFFFFF8000
003FFFFFFF0000
003FC000FF0000
003FC001FF0000
003FC001FE0000
007FC001FE0000
007F8001FE0000
007F8003FE0000
007F8003FC0000
00FF8003FC0000
00FF0003FC0000
00FF0007FC0000
00FF0007F80000
01FF0007F80000
01FE000FF80000
01FE000FF80000
03FE000FF80000
3FFFF1FFFF8000
3FFFF1FFFF8000
7FFFF1FFFF8000
ENDCHAR

STARTCHAR I
ENCODING 73
SWIDTH 479 0
DWIDTH 24 0
BBX 32 37 -2 0
BITMAP
001FFFFC
003FFFFC
003FFFF8
0001FF00
0001FF00
0001FE00
0001FE00
0001FE00
0003FE00
0003FC00
0003FC00
0003FC00
0007FC00
0007F800
0007F800
0007F800
000FF000
000FF000
000FF000
001FF000
001FE000
001FE000
001FE000
003FE000
003FC000
003FC000
003FC000
007FC000
007F8000
007F8000
007F8000
00FF8000
00FF0000
01FF8000
1FFFFC00
3FFFFC00
3FFFF800
ENDCHAR

STARTCHAR J
ENCODING 74
SWIDTH 656 0
DWIDTH 33 0
BBX 40 38 0 -1
BITMAP
00003FFFFC
00003FFFFC
00003FFFFC
000000FF80
000000FF00
000000FF00
000000FF00
000001FE00
000001FE00
000001FE00
000003FE00
000003FC00
000003FC00
000003FC00
000007FC00
000007F800
000007F800
000007F800
00000FF800
00000FF000
00000FF000
00000FF000
00001FE000
0F801FE000
1FC01FE000
3FE03FE000
3FE03FC000
7FE03FC000
7FC03FC000
7FC07F8000
7F007F8000
7E00FF0000
3E00FF0000
3E01FE0000
1F03FC0000
0FFFF80000
07FFE00000
00FF000000
ENDCHAR

STARTCHAR K
ENCODING 75
SWIDTH 823 0
DWIDTH 41 0
BBX 49 37 -2 0
BITMAP
003FFFF1FFFE00
003FFFE3FFFE00
003FFFE3FFFE00
0003FE003FE000
0003FE003F8000
0003FE003E0000
0003FC007C0000
0003FC00F80000
0007FC01F00000
0007F803C00000
0007F80F800000
0007F81F000000
000FF83C000000
000FF078000000
000FF1F8000000
000FF3FC000000
001FF7FC000000
001FEFFC000000
001FFFFE000000
003FFDFE000000
003FF1FE000000
003FE0FF000000
003FC0FF000000
007FC0FF000000
007F807F800000
007F807F800000
007F807F800000
00FF803FC00000
00FF003FC00000
00FF003FC00000
00FF001FE00000
01FF001FE00000
01FE001FF00000
03FF001FF80000
3FFFF1FFFF8000
3FFFF1FFFF8000
3FFFE3FFFF0000
ENDCHAR

STARTCHAR L
ENCODING 76
SWIDTH 698 0
DWIDTH 35 0
BBX 38 37 -2 0
BITMAP
003FFFFC00
003FFFFC00
007FFFF800
0003FE0000
0003FE0000
0003FE0000
0003FC0000
0003FC0000
0007FC0000
0007FC0000
0007F80000
0007F80000
000FF80000
000FF00000
000FF00000
000FF00000
001FF00000
001FE00000
001FE00000
001FE00000
003FE00000
003FC00000
003FC00000
007FC00000
007F800070
007F800070
007F8000E0
00FF8000E0
00FF0001E0
00FF0003E0
00FF0007C0
01FF000FC0
01FE001FC0
03FE00FF80
3FFFFFFF80
3FFFFFFF80
3FFFFFFF00
ENDCHAR

STARTCHAR M
ENCODING 77
SWIDTH 1031 0
DWIDTH 52 0
BBX 59 37 -2 0
BITMAP
003FFFC0003FFFC0
003FFFC0003FFFC0
007FFFC0007FFF80
0001FFC0007FF800
0001FFC000EFF000
0001FFC001EFF000
00039FC001DFF000
00039FC003DFE000
00039FC0079FE000
00039FE0071FE000
00071FE00F3FE000
00071FE00E3FC000
00071FE01E3FC000
000F1FE03C3FC000
000E1FE0387FC000
000E1FE0787F8000
000E1FE0707F8000
001C0FE0E07F8000
001C0FE1E0FF0000
001C0FE1C0FF0000
001C0FF3C0FF0000
00380FF381FF0000
00380FF701FE0000
00380FFF01FE0000
00780FFE01FE0000
00700FFE03FE0000
00700FFC03FC0000
007007F803FC0000
00E007F803FC0000
00E007F007F80000
00E007F007F80000
01E007E007F80000
01F007C00FF80000
07F807C00FF80000
3FFF0780FFFFC000
3FFF0701FFFF8000
3FFF0701FFFF8000
ENDCHAR

STARTCHAR N
ENCODING 78
SWIDTH 833 0
DWIDTH 42 0
BBX 50 37 -2 0
BITMAP
003FFE001FFF80
007FFE003FFF00
007FFE003FFF00
0003FF0003F800
0003FF0001F000
0003FF8001E000
0003FF8001C000
0003FFC001C000
0003BFC001C000
00033FE0038000
00071FE0038000
00071FF0038000
00070FF0038000
000E0FF8070000
000E07F8070000
000E07FC070000
000E03FC070000
001C03FE0E0000
001C01FE0E0000
001C01FF0E0000
001800FF1C0000
003800FF9C0000
0038007F9C0000
0038007FDC0000
0070003FF80000
0070003FF80000
0070003FF80000
0070001FF80000
00E0001FF00000
00E0000FF00000
00E0000FF00000
01E00007E00000
03F00007E00000
07F00003E00000
3FFF8003E00000
3FFF0001C00000
3FFF0001C00000
ENDCHAR

STARTCHAR O
ENCODING 79
SWIDTH 823 0
DWIDTH 41 0
BBX 41 39 2 -1
BITMAP
00000FF00000
00007FFF0000
0003FFFF8000
0007F81FE000
001FE007F000
003FC003F800
007F8003F800
00FF0001FC00
01FF0001FC00
03FE0001FC00
03FE0001FE00
07FC0001FE00
07FC0001FE00
0FFC0001FE00
0FF80003FE00
1FF80003FE00
1FF80003FE00
1FF00003FE00
1FF00003FE00
3FF00007FE00
3FE00007FE00
3FE00007FC00
3FE00007FC00
3FE0000FFC00
3FE0000FF800
3FC0000FF800
3FC0001FF000
3FC0001FF000
3FC0001FE000
1FC0003FE000
1FC0003FC000
1FE0007F8000
0FE000FF0000
07E001FE0000
07F003FC0000
01FC0FF00000
00FFFFE00000
003FFF000000
0007F8000000
ENDCHAR

STARTCHAR P
ENCODING 80
SWIDTH 771 0
DWIDTH 39 0
BBX 43 37 -2 0
BITMAP
003FFFFF8000
003FFFFFF800
003FFFFFFC00
0003FE01FE00
0003FE00FF00
0003FE007F80
0003FC007F80
0003FC007FC0
0003FC007FC0
0007FC007FC0
0007F8007FC0
0007F8007FC0
000FF800FF80
000FF000FF80
000FF001FF80
000FF001FF00
001FF003FF00
001FE00FFE00
001FFFFFF800
001FFFFFE000
003FFFFC0000
003FC0000000
003FC0000000
003FC0000000
007FC0000000
007F80000000
007F80000000
00FF80000000
00FF00000000
00FF00000000
00FF00000000
01FF00000000
01FE00000000
03FF00000000
3FFFFC000000
3FFFF8000000
3FFFF8000000
ENDCHAR

STARTCHAR Q
ENCODING 81
SWIDTH 823 0
DWIDTH 41 0
BBX 41 44 2 -6
BITMAP
00000FF00000
0000FFFE0000
0003FFFF8000
000FF01FE000
001FE007F000
007F8003F800
00FF8003F800
01FF0001FC00
01FE0001FC00
03FE0001FC00
07FC0001FE00
07FC0001FE00
0FF80001FE00
0FF80003FE00
1FF80003FE00
1FF00003FE00
3FF00003FE00
3FF00003FE00
3FE00003FE00
3FE00007FE00
3FE00007FC00
7FE1F007FC00
7FC7FC0FFC00
7FCFFE0FFC00
7FDFFF0FF800
7FF87F1FF800
7FE01F9FF000
3FE01F9FF000
3FC00FFFE000
3FC00FFFC000
3FC007FFC000
1FC007FF8000
1FC007FF0000
0FE003FE0000
07F003FC0000
03FC0FF00000
01FFFFF80000
003FFFF80000
0007F8FC0000
000000FE0000
0000007F8000
0000001FFF00
0000000FFF00
00000000F800
ENDCHAR

STARTCHAR R
ENCODING 82
SWIDTH 823 0
DWIDTH 41 0
BBX 42 37 -2 0
BITMAP
003FFFFFC000
007FFFFFF000
007FFFFFFC00
0003FE07FE00
0003FE01FE00
0003FC00FF00
0003FC00FF00
0007FC00FF80
0007F800FF80
0007F800FF80
0007F800FF80
000FF800FF80
000FF001FF00
000FF003FF00
000FF003FE00
001FF00FFC00
001FE01FF800
001FFFFFE000
001FFFFF0000
003FFFFC0000
003FC0FF0000
003FC07F0000
007FC07F8000
007F807F8000
007F803FC000
007F803FC000
00FF803FC000
00FF001FE000
00FF001FE000
00FF001FE000
01FF001FE000
01FE000FF000
01FE000FF000
03FE000FF800
3FFFF80FFF00
3FFFF007FF00
7FFFF007FF00
ENDCHAR

STARTCHAR S
ENCODING 83
SWIDTH 667 0
DWIDTH 33 0
BBX 36 39 0 -1
BITMAP
00007FC000
0003FFFE00
000FFFFF80
001FC07FC0
003F801FC0
007F000FC0
00FE000F80
00FE000780
00FE000780
01FE000780
01FF000700
01FF000700
01FF800700
00FFE00000
00FFF00000
00FFFC0000
007FFF0000
003FFFC000
001FFFE000
0007FFF800
0003FFFC00
0000FFFE00
00003FFE00
00000FFF00
000007FF00
060001FF00
0E0000FF00
0E0000FF00
0E00007F00
0E00007F00
1F00007F00
1F0000FE00
1F0000FE00
1F8001FC00
3FC003F800
3FF00FF000
3FFFFFE000
07FFFF8000
001FF80000
ENDCHAR

STARTCHAR T
ENCODING 84
SWIDTH 750 0
DWIDTH 38 0
BBX 39 37 3 0
BITMAP
03FFFFFFF8
03FFFFFFF8
07FFFFFFF8
07F0FF83F8
07C0FF81F8
0F80FF00F0
0F00FF00F0
0F00FF00F0
1E01FF00F0
1C01FE00E0
3C01FE00E0
3801FE00E0
3803FE00E0
7003FC00C0
0003FC0000
0003FC0000
0007FC0000
0007F80000
0007F80000
000FF80000
000FF00000
000FF00000
000FF00000
001FF00000
001FE00000
001FE00000
001FE00000
003FE00000
003FC00000
003FC00000
007FC00000
007F800000
007F800000
00FF800000
3FFFFE0000
3FFFFE0000
3FFFFE0000
ENDCHAR

STARTCHAR U
ENCODING 85
SWIDTH 792 0
DWIDTH 40 0
BBX 41 38 5 -1
BITMAP
1FFFF87FFF00
3FFFF87FFE00
3FFFF07FFE00
01FF0007F000
01FE0003E000
01FE0003C000
03FE0003C000
03FC00038000
03FC00038000
03FC00038000
07FC00038000
07F800070000
07F800070000
07F800070000
0FF0000F0000
0FF0000E0000
0FF0000E0000
0FF0000E0000
1FE0001C0000
1FE0001C0000
1FE0001C0000
3FE0001C0000
3FC000380000
3FC000380000
3FC000380000
7FC000700000
7F8000700000
7F8000700000
7F8000E00000
7F8000E00000
7F8001E00000
3F8001C00000
3FC003800000
1FE007800000
1FF03F000000
0FFFFE000000
03FFF8000000
00FFC0000000
ENDCHAR

STARTCHAR V
ENCODING 86
SWIDTH 771 0
DWIDTH 39 0
BBX 42 38 4 -1
BITMAP
1FFFE01FFF80
3FFFE01FFF00
3FFFE01FFF00
03FC0003F800
03FC0003F000
01FC0001E000
01FC0003C000
01FC00038000
01FE00078000
01FE00070000
01FE000E0000
01FE000E0000
00FE001C0000
00FE003C0000
00FF00380000
00FF00700000
00FF00700000
00FF00E00000
007F01E00000
007F01C00000
007F83800000
007F83800000
007F87000000
007F8F000000
003F8E000000
003F9C000000
003FDC000000
003FF8000000
003FF8000000
003FF0000000
001FE0000000
001FE0000000
001FC0000000
001FC0000000
001F80000000
001F80000000
000F00000000
000E00000000
ENDCHAR

STARTCHAR W
ENCODING 87
SWIDTH 1104 0
DWIDTH 55 0
BBX 57 38 5 -1
BITMAP
1FFFC7FFFC1FFE00
3FFFC7FFFC1FFE00
3FFF8FFFFC1FFE00
07FC00FF8003F000
03FC007F8003E000
03FC007F8003C000
03FC007F80038000
03FC007F80078000
03FC003F80070000
01FC003F800F0000
01FC007F800E0000
01FC007F801C0000
01FC00FFC03C0000
01FC01FFC0380000
01FE01FFC0780000
01FE03FFC0700000
01FE03BFC0F00000
01FE073FC0E00000
00FE071FC1E00000
00FE0E1FC3C00000
00FE1E1FC3800000
00FE1C1FC7800000
00FE381FE7000000
00FF381FEF000000
00FF701FEE000000
00FFF01FFE000000
00FFE01FFC000000
007FE00FF8000000
007FC00FF8000000
007F800FF0000000
007F800FF0000000
007F000FE0000000
007F000FE0000000
007E000FC0000000
007C000F80000000
007C000F80000000
0078000700000000
0038000700000000
ENDCHAR

STARTCHAR X
ENCODING 88
SWIDTH 823 0
DWIDTH 41 0
BBX 52 37 -4 0
BITMAP
001FFFFC1FFFC0
001FFFF81FFFC0
001FFFF81FFFC0
0001FF8003FC00
0000FF8003F800
00007F8003F000
00007FC003C000
00003FC0078000
00003FE01F0000
00001FE03E0000
00001FF07C0000
00000FF0F00000
00000FF9E00000
000007FBC00000
000007FF800000
000003FF000000
000003FE000000
000001FE000000
000001FE000000
000003FF000000
000007FF000000
00000FFF800000
00001E7F800000
00003C7FC00000
0000783FC00000
0001F03FE00000
0003E01FE00000
0007801FF00000
000F000FF00000
001E000FF80000
003E0007F80000
00FC0007FC0000
01FC0007FC0000
07FE0007FE0000
3FFFC07FFFE000
3FFFC0FFFFE000
3FFFC0FFFFE000
ENDCHAR

STARTCHAR Y
ENCODING 89
SWIDTH 771 0
DWIDTH 39 0
BBX 42 37 4 0
BITMAP
1FFFE07FFF80
3FFFE0FFFF00
3FFFC0FFFF00
07FE0007F000
03FE0007E000
01FE0007C000
01FF00078000
00FF000F0000
00FF001E0000
00FF801C0000
007F803C0000
007FC0780000
003FC0F00000
003FE1E00000
001FE1C00000
001FF3800000
000FF7800000
000FFF000000
0007FE000000
0007FC000000
0003FC000000
0007FC000000
0007F8000000
0007F8000000
0007F8000000
000FF8000000
000FF0000000
000FF0000000
000FF0000000
001FE0000000
001FE0000000
001FE0000000
003FE0000000
003FE0000000
07FFFF000000
0FFFFF000000
0FFFFF000000
ENDCHAR

STARTCHAR Z
ENCODING 90
SWIDTH 719 0
DWIDTH 36 0
BBX 42 37 -1 0
BITMAP
0003FFFFFF80
0007FFFFFF00
0007FFFFFF00
0007F807FE00
000FE00FFC00
000F801FF800
000F001FF000
001E003FE000
001E007FE000
001C00FFC000
003801FF8000
003803FF0000
000007FE0000
000007FC0000
00000FFC0000
00001FF80000
00003FF00000
00007FE00000
0000FFC00000
0001FF800000
0001FF000000
0003FF000000
0007FE000000
000FFC000000
001FF800E000
003FF000E000
007FE001C000
007FE001C000
00FFC003C000
01FF8007C000
03FF000F8000
07FE001F8000
0FFC007F8000
0FF801FF0000
1FFFFFFF0000
3FFFFFFF0000
3FFFFFFF0000
ENDCHAR

STARTCHAR bracketleft
ENCODING 91
SWIDTH 396 0
DWIDTH 20 0
BBX 28 45 -2 -8
BITMAP
0003FFC0
0007FFC0
0007FFC0
0007F000
0007F000
000FE000
000FE000
000FE000
000FE000
001FC000
001FC000
001FC000
001FC000
003F8000
003F8000
003F8000
007F0000
007F0000
007F0000
007F0000
00FE0000
00FE0000
00FE0000
00FE0000
01FC0000
01FC0000
01FC0000
03FC0000
03F80000
03F80000
03F80000
07F00000
07F00000
07F00000
07F00000
0FE00000
0FE00000
0FE00000
0FE00000
1FC00000
1FC00000
1FC00000
3FFE0000
3FFE0000
3FFC0000
ENDCHAR

STARTCHAR backslash
ENCODING 92
SWIDTH 552 0
DWIDTH 28 0
BBX 28 42 0 -1
BITMAP
3C000000
3C000000
1E000000
1E000000
0F000000
0F000000
07800000
07800000
03C00000
03C00000
01E00000
01E00000
00F00000
00F00000
00780000
00780000
003C0000
003C0000
001E0000
001E0000
000F0000
000F0000
000F8000
00078000
0007C000
0003C000
0003E000
0001E000
0001F000
0000F000
0000F800
00007800
00007C00
00003C00
00003E00
00001E00
00001F00
00000F00
00000F00
00000780
00000780
000003C0
ENDCHAR

STARTCHAR bracketright
ENCODING 93
SWIDTH 396 0
DWIDTH 20 0
BBX 27 45 -5 -8
BITMAP
0007FFC0
0007FFC0
0007FF80
00003F80
00003F80
00007F00
00007F00
00007F00
00007F00
0000FE00
0000FE00
0000FE00
0000FE00
0001FC00
0001FC00
0001FC00
0003F800
0003F800
0003F800
0003F800
0007F000
0007F000
0007F000
0007F000
000FE000
000FE000
000FE000
001FE000
001FC000
001FC000
001FC000
003F8000
003F8000
003F8000
003F8000
007F0000
007F0000
007F0000
00FF0000
00FE0000
00FE0000
00FE0000
3FFC0000
3FFC0000
7FFC0000
ENDCHAR

STARTCHAR asciicircum
ENCODING 94
SWIDTH 573 0
DWIDTH 29 0
BBX 25 18 4 16
BITMAP
00180000
003C0000
003E0000
007E0000
007F0000
00FF0000
00E78000
01E78000
03C3C000
03C3C000
0781E000
0700F000
0F00F000
0E007800
1E007800
3C003C00
3C003C00
78001E00
ENDCHAR

STARTCHAR underscore
ENCODING 95
SWIDTH 500 0
DWIDTH 25 0
BBX 29 3 -2 -11
BITMAP
3FFFFFE0
3FFFFFE0
3FFFFFE0
ENDCHAR

STARTCHAR quoteleft
ENCODING 96
SWIDTH 323 0
DWIDTH 16 0
BBX 14 15 6 23
BITMAP
0020
00F0
03E0
0780
0E00
1C00
3C00
3F00
7F80
7FC0
7FC0
7FC0
3FC0
3F80
1F00
ENDCHAR

STARTCHAR a
ENCODING 97
SWIDTH 667 0
DWIDTH 33 0
BBX 34 29 0 -1
BITMAP
0007C00200
001FF0FE00
007FF9FC00
00FFFDFC00
01FF1DFC00
03FE0FFC00
03FC07F800
07F807F800
07F807F800
0FF007F000
0FF007F000
1FE007F000
1FE00FF000
1FE00FE000
3FC00FE000
3FC00FE000
3FC01FE000
3FC01FC000
3F801FC000
3F801FC000
3F803F8300
3F807F8700
3F80FF8E00
3FC1FF9C00
1FE7FFB800
1FFF7FF800
0FFE3FE000
07FC3FC000
03E01F0000
ENDCHAR

STARTCHAR b
ENCODING 98
SWIDTH 635 0
DWIDTH 32 0
BBX 33 39 -1 -1
BITMAP
0003F00000
00FFF00000
00FFE00000
001FE00000
001FE00000
001FE00000
001FC00000
001FC00000
001FC00000
003F800000
003F800000
003F87E000
003F9FF800
007F3FF800
007F7FFC00
007FE3FE00
00FFC1FE00
00FF80FE00
00FE00FE00
01FE00FE00
01FC00FE00
01FC00FE00
01FC01FE00
03F801FE00
03F801FE00
03F801FE00
07F803FC00
07F003FC00
07F003F800
07F007F800
0FF007F000
0FE00FF000
0FE00FE000
1FE01FC000
1FE03F8000
1FF07F0000
3CF8FE0000
387FF80000
001FE00000
ENDCHAR

STARTCHAR c
ENCODING 99
SWIDTH 510 0
DWIDTH 26 0
BBX 27 29 1 -1
BITMAP
0007F800
001FFE00
007F3F00
00FC1F80
01F81FC0
03F81FC0
07F01FC0
07E01FC0
0FE00F80
0FE00700
1FC00000
1FC00000
3FC00000
3F800000
3F800000
3F800000
7F800000
7F800000
7F800000
7F800000
7F800000
7F800000
3F801E00
3FC03C00
3FC07800
1FF1F000
0FFFE000
07FF8000
01FE0000
ENDCHAR

STARTCHAR d
ENCODING 100
SWIDTH 667 0
DWIDTH 33 0
BBX 36 40 0 -1
BITMAP
0000001FC0
000003FFC0
000003FFC0
0000007F80
0000003F80
0000007F80
0000007F00
0000007F00
0000007F00
000000FF00
000000FE00
0007C0FE00
001FF0FE00
007FF9FE00
00FFFDFC00
01FF1DFC00
01FE0FFC00
03FC07F800
07F807F800
07F803F800
0FF007F800
0FF007F000
1FE007F000
1FE007F000
1FE00FF000
3FC00FE000
3FC00FE000
3FC00FE000
3FC01FC000
3F801FC000
3F801FC000
3F803FC300
3F807F8700
3F80FF8E00
3FC1FF8C00
1FE7FFBC00
1FFFBFF800
0FFE3FF000
07FC3FC000
03F00F0000
ENDCHAR

STARTCHAR e
ENCODING 101
SWIDTH 500 0
DWIDTH 25 0
BBX 26 29 1 -1
BITMAP
0007F800
001FFE00
007E7F00
00F83F00
01F83F80
03F03F80
07E03F80
07E03F80
0FE03F00
1FC07F00
1FC0FE00
1FC0FE00
3FC1FC00
3F83F000
3F8FE000
7F9F8000
7FFE0000
7FF80000
7F800000
7F800000
7F800000
7F800000
3F803C00
3FC07800
3FE1F000
1FFFE000
0FFFC000
07FF0000
01F80000
ENDCHAR

STARTCHAR f
ENCODING 102
SWIDTH 406 0
DWIDTH 20 0
BBX 40 47 -10 -9
BITMAP
0000000FF8
0000003FFC
000000FCFE
000001F8FE
000003F07E
000003E07C
000007E038
00000FE000
00000FE000
00000FC000
00001FC000
00001FC000
0003FFFC00
0003FFFC00
0003FFFC00
00003F8000
00003F8000
00007F0000
00007F0000
00007F0000
00007F0000
0000FE0000
0000FE0000
0000FE0000
0000FE0000
0000FC0000
0001FC0000
0001FC0000
0001FC0000
0001F80000
0003F80000
0003F80000
0003F80000
0003F00000
0007F00000
0007F00000
0007E00000
0007E00000
000FC00000
000FC00000
000F800000
3C0F000000
3E1E000000
7F3E000000
7FF8000000
3FF0000000
1FC0000000
ENDCHAR

STARTCHAR g
ENCODING 103
SWIDTH 625 0
DWIDTH 31 0
BBX 36 37 -3 -9
BITMAP
0001FF81E0
0007FFFFE0
000FE1FFE0
003FC0F1C0
003F80F800
007F00FC00
007F00FC00
00FF00FE00
00FE00FE00
00FE00FE00
00FE01FE00
007E01FC00
007E03FC00
003E07F800
001F0FF000
001FFFC000
007DFF0000
00F0000000
03E0000000
03C0000000
07E0000000
07FFFC0000
07FFFF8000
07FFFFE000
03FFFFE000
01FFFFF000
01FFFFF000
07C07FF000
1F0003F000
3E0001F000
7E0001F000
7E0001E000
7E0003C000
3F000F8000
1FE0FF0000
0FFFFC0000
03FFE00000
ENDCHAR

STARTCHAR h
ENCODING 104
SWIDTH 677 0
DWIDTH 34 0
BBX 35 40 0 -1
BITMAP
003FE00000
01FFE00000
01FFE00000
003FC00000
001FC00000
001FC00000
003FC00000
003F800000
003F800000
003F800000
007F000000
007F03F000
007F07F800
00FF1FFC00
00FE3FFC00
00FE7BFC00
00FEE1FC00
01FDC1FC00
01FF81FC00
01FF01FC00
03FE03F800
03FC03F800
03F803F800
03F807F000
07F007F000
07F007F000
07F00FF000
07F00FE000
0FE00FE000
0FE01FE000
0FE01FC000
1FC01FC380
1FC01FC300
1FC03FC700
1FC03F8E00
3F803F9C00
3F803FF800
3F803FF000
7F001FE000
00000F8000
ENDCHAR

STARTCHAR i
ENCODING 105
SWIDTH 396 0
DWIDTH 20 0
BBX 19 40 2 -1
BITMAP
001E00
003F80
007F80
007F80
007F80
003F80
001F00
000000
000000
000000
000000
01FF00
1FFE00
1FFE00
01FE00
01FE00
01FC00
01FC00
01FC00
03F800
03F800
03F800
07F800
07F000
07F000
07F000
0FF000
0FE000
0FE000
1FE000
1FC000
1FC380
1FC300
3FC700
3F8E00
3F9C00
3FF800
3FF000
1FE000
0F8000
ENDCHAR

STARTCHAR j
ENCODING 106
SWIDTH 396 0
DWIDTH 20 0
BBX 29 48 -9 -9
BITMAP
00000780
00000FE0
00001FE0
00001FE0
00001FE0
00000FE0
000007C0
00000000
00000000
00000000
00000000
00003FC0
0003FFC0
0003FFC0
00003FC0
00003F80
00003F80
00003F80
00003F80
00007F00
00007F00
00007F00
00007F00
0000FE00
0000FE00
0000FE00
0000FE00
0001FC00
0001FC00
0001FC00
0001FC00
0003F800
0003F800
0003F800
0003F800
0007F800
0007F000
0007F000
0007F000
000FE000
000FE000
1E0FC000
3F0FC000
3F1F8000
3F9F0000
1FFE0000
1FF80000
03C00000
ENDCHAR

STARTCHAR k
ENCODING 107
SWIDTH 646 0
DWIDTH 32 0
BBX 33 40 0 -1
BITMAP
0003F00000
01FFE00000
01FFE00000
003FE00000
001FC00000
001FC00000
001FC00000
003FC00000
003F800000
003F800000
003F800000
007F007800
007F01FE00
007F03FE00
00FF07FF00
00FE0E7E00
00FE1C3E00
00FE381C00
01FC700000
01FCE00000
01FCC00000
03FDC00000
03FB800000
03FFFC0000
03FFFE0000
07FE7F0000
07F83F0000
07F03F0000
0FF03F0000
0FE03F0000
0FE03F0000
0FE03F0000
1FC07F0600
1FC07F0E00
1FC07F1C00
3FC07F3800
3F807FF000
3F803FE000
3F803FC000
00000F0000
ENDCHAR

STARTCHAR l
ENCODING 108
SWIDTH 396 0
DWIDTH 20 0
BBX 20 39 2 -1
BITMAP
0007E0
03FFC0
03FFC0
007FC0
003FC0
003F80
003F80
003F80
007F00
007F00
007F00
00FF00
00FE00
00FE00
00FE00
01FC00
01FC00
01FC00
03FC00
03F800
03F800
03F800
07F000
07F000
07F000
0FF000
0FE000
0FE000
0FE000
1FC000
1FC000
1FC380
3FC700
3F8E00
3F9C00
3FF800
3FF000
1FE000
0F8000
ENDCHAR

STARTCHAR m
ENCODING 109
SWIDTH 948 0
DWIDTH 47 0
BBX 49 29 0 -1
BITMAP
00FF03E007C000
0FFE0FF01FE000
0FFE1FF83FF000
01FE3FF8FFF000
00FE7FF9FFF000
00FCE3FBC7F000
01FDC3FF87F000
01FF83FE07F000
01FF07FC0FE000
03FE07F80FE000
03FC07F80FE000
03F80FF01FE000
03F80FE01FC000
07F00FE01FC000
07F00FE01FC000
07F01FE03F8000
0FF01FC03F8000
0FE01FC03F8000
0FE01FC07F8000
0FE03F807F0000
1FC03F807F0E00
1FC03F807F0C00
1FC07F80FE1C00
3FC07F00FE3800
3F807F00FE7000
3F807F00FFE000
3F80FE00FFC000
7F00FE007F8000
000000003E0000
ENDCHAR

STARTCHAR n
ENCODING 110
SWIDTH 677 0
DWIDTH 34 0
BBX 35 29 0 -1
BITMAP
00FF03F000
0FFE0FF800
0FFE1FFC00
01FE3FFC00
00FE7BFC00
00FCE1FC00
01FDC1FC00
01FF81FC00
01FF03F800
03FE03F800
03FC03F800
03F807F000
03F807F000
07F807F000
07F007E000
07F00FE000
0FF00FE000
0FE00FC000
0FE00FC000
0FE01FC000
1FE01FC000
1FC01F8380
1FC03F8700
1FC03F8E00
3F803F9C00
3F803FF800
3F803FF000
7F801FE000
00000F8000
ENDCHAR

STARTCHAR o
ENCODING 111
SWIDTH 594 0
DWIDTH 30 0
BBX 29 29 1 -1
BITMAP
000FF800
007FFE00
00FE3F00
01FC1F80
03F80FC0
07F00FC0
0FF00FC0
0FE00FE0
1FE00FE0
1FE00FE0
3FC00FE0
3FC00FE0
3FC01FE0
3F801FE0
7F801FE0
7F801FE0
7F803FC0
7F003FC0
7F003FC0
7F003F80
7F007F80
3F007F00
3F00FF00
3F00FE00
1F01FC00
1F83F800
0FC7F000
03FFC000
00FF0000
ENDCHAR

STARTCHAR p
ENCODING 112
SWIDTH 646 0
DWIDTH 32 0
BBX 39 37 -6 -9
BITMAP
0003FE1F80
001FFE7FC0
003FFCFFE0
0003FDFFF0
0003FFCFF0
0003FF07F8
0003FE03F8
0003FC03F8
0003F803F8
0007F003F8
0007F003F8
0007F007F8
000FF007F8
000FE007F8
000FE007F8
000FE00FF0
001FC00FF0
001FC00FF0
001FC01FE0
001FC01FE0
003F803FC0
003FC03FC0
003FC07F80
007FE0FF80
007F71FF00
007F7FFE00
007F3FFC00
00FE1FF000
00FE07C000
00FE000000
01FE000000
01FC000000
01FC000000
01FC000000
03FC000000
3FFFE00000
3FFFE00000
ENDCHAR

STARTCHAR q
ENCODING 113
SWIDTH 625 0
DWIDTH 31 0
BBX 32 37 -1 -9
BITMAP
0003FC00
000FFF06
003F8F9E
007F07FC
00FE03FC
01FC03FC
03FC03F8
07F803F8
07F803F8
0FF007F8
0FF007F0
1FE007F0
1FE00FF0
1FE00FE0
3FC00FE0
3FC00FE0
3FC01FE0
3FC01FC0
3F801FC0
3F801FC0
3F803FC0
3F807F80
3F80FF80
3FC1FF80
1FE7FF00
1FFF7F00
0FFE7F00
07FCFF00
03F0FE00
0000FE00
0000FE00
0001FE00
0001FC00
0001FC00
0003FE00
007FFFC0
007FFF80
ENDCHAR

STARTCHAR r
ENCODING 114
SWIDTH 552 0
DWIDTH 28 0
BBX 30 28 -1 0
BITMAP
01FE01E0
0FFE07F0
1FFE0FF0
01FE1FF0
00FE3FF0
00FE73F0
00FEE1F0
01FFE0E0
01FFC000
01FF8000
01FF0000
01FE0000
03FE0000
03FC0000
03F80000
03F80000
07F00000
07F00000
07F00000
0FF00000
0FE00000
0FE00000
0FE00000
1FC00000
1FC00000
1FC00000
3FC00000
3F800000
ENDCHAR

STARTCHAR s
ENCODING 115
SWIDTH 500 0
DWIDTH 25 0
BBX 27 29 -1 -1
BITMAP
000FF800
007FFE00
00FC7F00
01F81F80
01F01F80
03F01F80
03F00F80
03F80F80
03F80200
03FE0000
03FF0000
01FF8000
01FFC000
00FFF000
007FF800
003FF800
001FFC00
0007FC00
0003FE00
0001FE00
1E00FE00
3F00FE00
3F00FC00
3F00FC00
3F00F800
3F81F800
1FC7F000
0FFFC000
01FF0000
ENDCHAR

STARTCHAR t
ENCODING 116
SWIDTH 406 0
DWIDTH 20 0
BBX 21 35 1 -1
BITMAP
0001C0
000180
000380
000780
000F00
001F00
003F00
007F00
03FFF0
1FFFF0
1FFFE0
01FC00
01FC00
01FC00
03FC00
03F800
03F800
03F800
07F000
07F000
07F000
0FF000
0FE000
0FE000
0FE000
1FC000
1FC000
1FC1C0
3FC380
3F8700
3F8E00
3FFC00
3FF800
1FE000
0F8000
ENDCHAR

STARTCHAR u
ENCODING 117
SWIDTH 677 0
DWIDTH 34 0
BBX 33 29 1 -1
BITMAP
01FF000000
0FFE00FE00
1FFE01FE00
03FE01FC00
01FC01FC00
01FC01FC00
01FC03F800
03FC03F800
03F803F800
03F807F000
07F807F000
07F007F000
07F00FE000
07F00FE000
0FE00FE000
0FE00FE000
0FE01FC000
1FC01FC000
1FC03FC000
1FC07F8000
3FC0FF8700
3F81FF8E00
3F83FF0E00
3F8F7F1C00
3FFE7F3800
3FFC7FF000
1FF87FE000
1FE03FC000
07801F0000
ENDCHAR

STARTCHAR v
ENCODING 118
SWIDTH 562 0
DWIDTH 28 0
BBX 28 29 1 -1
BITMAP
03FE0F00
3FFC1F80
3FFC1FC0
07FC1FC0
03FC1FC0
03F80FC0
03F807C0
07F803C0
07F003C0
07F001C0
07F001C0
0FF001C0
0FE00180
0FE00380
1FE00380
1FC00380
1FC00700
1FC00700
1FC00600
3F800E00
3F801C00
3F801C00
3F803800
3F807000
1FC0F000
1FE3E000
0FFFC000
07FF0000
01FC0000
ENDCHAR

STARTCHAR w
ENCODING 119
SWIDTH 865 0
DWIDTH 43 0
BBX 41 29 3 -1
BITMAP
03FE00000000
3FFC03F87800
3FFC03F8FC00
07FC07F8FE00
03F807F0FE00
03F807F0FE00
03F807F07E00
07F00FF03E00
07F00FE01E00
07F00FE00E00
0FF00FE00E00
0FE01FC00E00
0FE01FC00C00
1FE01FC00C00
1FC03FC01C00
1FC03F801C00
1FC03F803800
3F807F803800
3F807F003000
3F80FF007000
7F80FF00E000
7F01FF00E000
7F01BF01C000
7F03BF038000
7F073F878000
7F9E1FFF0000
3FFC1FFE0000
1FF80FF80000
0FE003E00000
ENDCHAR

STARTCHAR x
ENCODING 120
SWIDTH 625 0
DWIDTH 31 0
BBX 35 29 -2 -1
BITMAP
001F001F00
003F807F80
007FC0FF80
00FFE0FF80
01CFE1DF80
018FE38F00
0387F30000
0307F60000
0007FE0000
0003FC0000
0003FC0000
0003F80000
0001FC0000
0001FC0000
0001FC0000
0001FC0000
0001FE0000
0003FE0000
0007FE0000
00067E0000
000E7F0000
001C7F0700
1E187F0600
3F383F8E00
3FF03F8C00
3FE03FDC00
3FC01FF800
3F800FF000
0F0007E000
ENDCHAR

STARTCHAR y
ENCODING 121
SWIDTH 552 0
DWIDTH 28 0
BBX 33 37 -4 -9
BITMAP
000F003800
003F807C00
007FC0FE00
007FC0FE00
00FFE0FE00
00CFE07E00
01CFE03E00
018FE01E00
0187E01E00
0007F01C00
0007F01C00
0007F01800
0007F03800
0003F03800
0003F07000
0003F07000
0003F8E000
0003F8C000
0003F9C000
0003FB8000
0003FB8000
0001FF0000
0001FE0000
0001FC0000
0001FC0000
0001F80000
0001F00000
0001E00000
0001C00000
0003800000
1E07000000
3F0F000000
3F1C000000
3FF8000000
3FF0000000
3FE0000000
0F80000000
ENDCHAR

STARTCHAR z
ENCODING 122
SWIDTH 542 0
DWIDTH 27 0
BBX 30 29 -2 -1
BITMAP
001F8038
003FF0F0
00FFFFF0
00FFFFE0
01FFFFE0
03FFFDC0
0387F3C0
03000780
07000F00
00001E00
00003C00
00007800
0000F000
0003E000
0007C000
000F0000
001E0000
003C0000
00780000
00F00000
01E000E0
03C000C0
079FC1C0
077FFFC0
0FFFFF80
1FFFFF80
1FFFFF00
3E0FFE00
3801F800
ENDCHAR

STARTCHAR braceleft
ENCODING 123
SWIDTH 396 0
DWIDTH 20 0
BBX 23 44 5 -7
BITMAP
000038
0001F0
0003C0
000F00
001F00
003E00
003E00
007E00
007E00
007C00
007C00
007C00
007C00
00FC00
00FC00
00F800
00F800
00F000
01E000
03C000
070000
3C0000
380000
1E0000
070000
078000
078000
07C000
07C000
0FC000
0FC000
0F8000
1F8000
3F0000
3F0000
3E0000
7E0000
7C0000
7C0000
7C0000
3C0000
3E0000
1F0000
078000
ENDCHAR

STARTCHAR bar
ENCODING 124
SWIDTH 542 0
DWIDTH 27 0
BBX 6 42 11 -1
BITMAP
78
78
78
78
78
78
78
78
78
78
78
78
78
78
78
78
78
78
78
78
78
78
78
78
78
78
78
78
78
78
78
78
78
78
78
78
78
78
78
78
78
78
ENDCHAR

STARTCHAR braceright
ENCODING 125
SWIDTH 396 0
DWIDTH 20 0
BBX 23 44 -1 -7
BITMAP
000380
0003E0
0000F8
000078
00007C
00007C
00007C
0000FC
0000FC
0000F8
0001F8
0003F0
0003F0
0003E0
0007E0
0007C0
0007C0
0007C0
0003C0
0001C0
0000E0
000078
000038
0000E0
000380
000F00
001F00
001E00
003E00
003E00
007E00
007C00
007C00
007C00
007C00
007C00
007C00
00FC00
00F800
00F000
01E000
03C000
0F8000
3C0000
ENDCHAR

STARTCHAR asciitilde
ENCODING 126
SWIDTH 667 0
DWIDTH 33 0
BBX 29 7 2 13
BITMAP
07F00010
1FFE0030
1FFF8030
383FF0E0
300FFFE0
2001FFC0
20003F00
ENDCHAR

STARTCHAR space
ENCODING 160
SWIDTH 250 0
DWIDTH 16 0
BBX 0 0 0 0
BITMAP
ENDCHAR

STARTCHAR afii10023
ENCODING 161
SWIDTH 740 0
DWIDTH 37 0
BBX 42 46 -2 0
BITMAP
00003F01F800
00007F81FC00
00007F83FC00
00007F83FC00
00007F01FC00
00003F00F800
000000000000
000000000000
000000000000
003FFFFFFF00
003FFFFFFF00
007FFFFFFF00
0003FE007F00
0003FE003E00
0003FC001E00
0003FC001E00
0003FC001E00
0007FC001C00
0007F8001C00
0007F80E1C00
000FF80E1C00
000FF00C0000
000FF01C0000
000FF03C0000
001FF0FC0000
001FFFF80000
001FFFF80000
001FFFF80000
003FC1F80000
003FC0F00000
003FC0F00000
007FC0F00000
007F80E00000
007F80E03800
007F80E03800
00FF80E07000
00FF00007000
00FF0000F000
00FF0001E000
01FF0001E000
01FE0007E000
01FE000FE000
03FE007FC000
3FFFFFFFC000
3FFFFFFFC000
7FFFFFFF8000
ENDCHAR

STARTCHAR afii10051
ENCODING 162
SWIDTH 896 0
DWIDTH 45 0
BBX 42 38 3 -1
BITMAP
07FFFFFFF000
07FFFFFFF000
0FFFFFFFF000
0FC0FF07F000
1F81FF03F000
1F01FE01E000
1E01FE01E000
3C01FE01E000
3803FE01E000
3803FC01C000
0003FC000000
0007FC000000
0007FC000000
0007F81FE000
0007F8FFF800
000FFBFFFC00
000FFFFFFE00
000FFF87FF00
000FFC03FF00
001FF001FF00
001FE001FF80
001FE001FF80
001FE001FF80
003FE001FF80
003FC001FF80
003FC001FF80
007FC001FF00
007F8001FF00
007F8003FF00
007F8003FE00
00FF8003FE00
00FF0007FC00
00FF000FFC00
01FF009FF800
1FFFF0FFF000
1FFFF1FFE000
1FFFF0FFC000
0000003E0000
ENDCHAR

STARTCHAR afii10052
ENCODING 163
SWIDTH 719 0
DWIDTH 36 0
BBX 44 47 -2 0
BITMAP
00000003C000
00000007E000
0000001FE000
0000003FE000
0000007FC000
000000FE0000
000000E00000
000000000000
000000000000
000000000000
003FFFFFFFE0
003FFFFFFFE0
003FFFFFFFC0
0003FE003FC0
0003FE001FC0
0003FE000FC0
0003FC000F80
0003FC000780
0007FC000780
0007F8000780
0007F8000780
0007F8000700
000FF8000700
000FF0000000
000FF0000000
000FF0000000
001FF0000000
001FE0000000
001FE0000000
003FE0000000
003FC0000000
003FC0000000
003FC0000000
007FC0000000
007F80000000
007F80000000
007F80000000
00FF80000000
00FF00000000
00FF00000000
00FF00000000
01FE00000000
01FE00000000
03FE00000000
3FFFF0000000
3FFFF0000000
3FFFF0000000
ENDCHAR

STARTCHAR afii10053
ENCODING 164
SWIDTH 740 0
DWIDTH 37 0
BBX 39 39 2 -1
BITMAP
00000FF800
00007FFF00
0001FFFFC0
0007FC07F0
001FF003F8
003FE001FC
007FC000FC
00FF8000F8
01FF0000F8
01FF000078
03FE000078
07FC000070
07FC000070
0FFC000070
0FF8000070
1FF8000000
1FF8000000
1FF0000000
1FFFFF0000
3FFFFF0000
3FFFFE0000
3FE0000000
3FE0000000
3FE0000000
3FE0000000
3FE0000000
3FE0000000
3FE00001C0
3FF00003C0
1FF0000380
1FF0000700
0FF8000F00
0FFC001E00
07FE007C00
03FF01F800
01FFFFF000
00FFFFC000
003FFF0000
0003F80000
ENDCHAR

STARTCHAR afii10054
ENCODING 165
SWIDTH 667 0
DWIDTH 33 0
BBX 36 39 -2 -1
BITMAP
00007FC000
0003FFFE00
000FFFFF80
001FC07FC0
003F801FC0
007F000FC0
00FE000F80
00FE000780
00FE000780
01FE000780
01FF000700
01FF000700
01FF800700
00FFE00000
00FFF00000
00FFFC0000
007FFF0000
003FFFC000
001FFFF000
0007FFF800
0003FFFC00
0000FFFE00
00003FFE00
00000FFF00
000003FF00
060001FF00
0E0000FF00
0E0000FF00
0E00007F00
0E00007F00
1F00007F00
1F0000FE00
1F0000FE00
1F8001FC00
3FC003F800
3FF00FF000
3FFFFFC000
07FFFF0000
001FF80000
ENDCHAR

STARTCHAR afii10055
ENCODING 166
SWIDTH 479 0
DWIDTH 24 0
BBX 32 37 -2 0
BITMAP
001FFFFC
003FFFFC
003FFFF8
0001FF00
0001FF00
0001FE00
0001FE00
0001FE00
0003FE00
0003FC00
0003FC00
0003FC00
0007FC00
0007F800
0007F800
0007F800
000FF000
000FF000
000FF000
001FF000
001FE000
001FE000
001FE000
003FE000
003FC000
003FC000
003FC000
007FC000
007F8000
007F8000
007F8000
00FF8000
00FF0000
01FF8000
1FFFFC00
3FFFFC00
3FFFF800
ENDCHAR

STARTCHAR afii10056
ENCODING 167
SWIDTH 479 0
DWIDTH 24 0
BBX 33 46 -1 0
BITMAP
0007E0FC00
000FF1FE00
000FF1FE00
000FF1FE00
000FF1FE00
0007E0FC00
0000000000
0000000000
0000000000
003FFFF800
003FFFF800
007FFFF800
0003FF0000
0001FE0000
0003FE0000
0003FC0000
0003FC0000
0003FC0000
0007FC0000
0007F80000
0007F80000
0007F80000
000FF80000
000FF00000
000FF00000
001FF00000
001FF00000
001FE00000
001FE00000
003FE00000
003FC00000
003FC00000
003FC00000
007FC00000
007F800000
007F800000
007F800000
00FF800000
00FF000000
00FF000000
01FF000000
01FF000000
01FF000000
3FFFF80000
3FFFF80000
7FFFF80000
ENDCHAR

STARTCHAR afii10057
ENCODING 168
SWIDTH 656 0
DWIDTH 33 0
BBX 40 38 0 -1
BITMAP
00003FFFFC
00003FFFFC
00003FFFFC
000000FF80
000000FF00
000000FF00
000000FF00
000001FE00
000001FE00
000001FE00
000003FE00
000003FC00
000003FC00
000003FC00
000007FC00
000007F800
000007F800
000007F800
00000FF800
00000FF000
00000FF000
00000FF000
00001FE000
0F801FE000
1FC01FE000
3FE01FE000
3FE03FC000
7FE03FC000
7FC03FC000
7F807F8000
7F007F8000
7E007F0000
3E00FF0000
3E01FE0000
1F03FC0000
0FFFF80000
07FFE00000
00FF000000
ENDCHAR

STARTCHAR afii10058
ENCODING 169
SWIDTH 1219 0
DWIDTH 61 0
BBX 62 38 -2 -1
BITMAP
00007FFFFFFFE000
00007FFFFFFFC000
00007FFFFFFFC000
000007F007FC0000
000007E007F80000
000007C00FF80000
000007C00FF80000
000007800FF00000
000007800FF00000
000007801FF00000
000007001FE00000
00000F001FE00000
00000F003FE00000
00000E003FE00000
00000E003FC00000
00001C003FC00000
00001C007FFFE000
00001C007FFFFE00
000038007FFFFF80
000038007F807FC0
00007800FF803FE0
00007000FF001FF0
00007000FF000FF0
0000F001FF000FF8
0000E001FF000FF8
0001E001FE000FF8
0001C001FE000FF8
0001C003FE000FF8
00038003FC000FF0
00038003FC001FF0
0F070003FC003FF0
1FCF0007FC003FE0
3FFE0007F800FFC0
3FFE000FFC03FF80
3FFC00FFFFFFFF00
3FF800FFFFFFFC00
1FF000FFFFFFC000
0FC0000000000000
ENDCHAR

STARTCHAR afii10059
ENCODING 170
SWIDTH 1198 0
DWIDTH 60 0
BBX 60 37 -1 0
BITMAP
003FFFF1FFFF8000
003FFFE1FFFF0000
003FFFE3FFFF0000
0003FE001FF00000
0003FE001FE00000
0003FC003FE00000
0003FC003FC00000
0003FC003FC00000
0007FC003FC00000
0007F8007FC00000
0007F8007F800000
000FF8007F800000
000FF000FF800000
000FF000FF800000
000FF000FF000000
001FF000FF000000
001FFFFFFFFFC000
001FFFFFFFFFF800
003FFFFFFFFFFE00
003FE003FE01FF00
003FC003FE00FF80
003FC003FC007FC0
007FC003FC003FC0
007F8007FC003FE0
007F8007F8003FE0
007F8007F8003FE0
00FF8007F8003FE0
00FF000FF8003FE0
00FF000FF0007FE0
01FF000FF0007FC0
01FF000FF000FFC0
01FE001FF000FF80
01FE001FE003FF00
03FF003FF00FFE00
3FFFF1FFFFFFFC00
3FFFE1FFFFFFF000
7FFFE3FFFFFF0000
ENDCHAR

STARTCHAR afii10060
ENCODING 171
SWIDTH 917 0
DWIDTH 46 0
BBX 42 37 3 0
BITMAP
07FFFFFFF800
07FFFFFFF000
0FFFFFFFF000
0FE0FF03F000
0F80FF01F000
1F01FF01E000
1E01FE01E000
1C01FE00E000
3C01FE00E000
3803FC00E000
0003FC000000
0003FC000000
0007FC000000
0007F803E000
0007F83FF800
0007F9FFFC00
000FFFFFFC00
000FFFFFFE00
000FFF07FE00
000FF803FE00
001FF003FE00
001FE003FC00
001FE003FC00
003FE003FC00
003FC007FC00
003FC007F800
003FC007F800
007FC007F800
007F800FF800
007F800FF000
007F800FF000
00FF801FF000
00FF001FF000
01FF801FF000
1FFFF1FFFF00
1FFFF3FFFF00
1FFFF3FFFF00
ENDCHAR

STARTCHAR afii10061
ENCODING 172
SWIDTH 833 0
DWIDTH 42 0
BBX 49 47 -2 0
BITMAP
000000007C0000
00000000FE0000
00000001FE0000
00000003FE0000
00000007FC0000
0000000FC00000
00000008000000
00000000000000
00000000000000
0000000001F800
003FFFF003FE00
003FFFF007FE00
007FFFF00FFF00
0003FE001FFF00
0003FE001CFF00
0003FC0038FE00
0003FC00387E00
0003FC00707C00
0007FC00700000
0007F800E00000
0007F800E00000
000FF801C00000
000FF803C00000
000FF003800000
000FF007800000
001FF00F000000
001FF01E000000
001FE07C000000
001FFFF8000000
003FFFFC000000
003FFFFE000000
003FC1FF000000
007FC0FF800000
007FC07F800000
007F803FC00000
007F803FC00000
00FF801FC00000
00FF801FE00000
00FF001FE00000
00FF000FF00000
01FF000FF00000
01FE000FF80000
01FE0007F80000
03FE0007FC0000
3FFFF003FF8000
3FFFF003FF8000
3FFFF003FF8000
ENDCHAR

STARTCHAR hyphen
ENCODING 173
SWIDTH 323 0
DWIDTH 16 0
BBX 16 5 0 11
BITMAP
1FFE
3FFC
3FFC
3FFC
3FFC
ENDCHAR

STARTCHAR afii10062
ENCODING 174
SWIDTH 781 0
DWIDTH 39 0
BBX 45 49 2 -1
BITMAP
000078078000
0000FC07C000
0000FC0FC000
0000FC07C000
00007807C000
00007C0F8000
00003FFF0000
00000FFC0000
000000000000
000000000000
000000000000
07FFF81FFFE0
07FFF81FFFE0
0FFFF81FFFE0
01FF80007C00
00FF80007800
00FF8000F000
007F8000E000
007F8001E000
007F8003C000
007FC0038000
003FC0070000
003FC00F0000
003FC01E0000
003FE01C0000
001FE03C0000
001FE0780000
001FE0700000
001FF0E00000
000FF1E00000
000FF3C00000
000FF3800000
000FFF000000
0007FF000000
0007FE000000
0007FC000000
0007FC000000
0003F8000000
0003F0000000
0603E0000000
1F83E0000000
3FC3C0000000
3FC380000000
3FC700000000
3FCF00000000
3FFE00000000
1FFC00000000
0FF000000000
03C000000000
ENDCHAR

STARTCHAR afii10145
ENCODING 175
SWIDTH 865 0
DWIDTH 43 0
BBX 51 45 -2 -8
BITMAP
003FFFF1FFFFC0
003FFFF1FFFFC0
007FFFF1FFFF80
0003FE000FF800
0003FE000FF000
0003FC000FF000
0003FC001FF000
0007FC001FE000
0007FC001FE000
0007F8003FE000
0007F8003FE000
000FF8003FC000
000FF0003FC000
000FF0007FC000
000FF0007F8000
001FF0007F8000
001FE0007F8000
001FE000FF8000
001FE000FF0000
003FE000FF0000
003FC001FF0000
003FC001FF0000
007FC001FE0000
007FC001FE0000
007F8003FE0000
007F8003FC0000
00FF8003FC0000
00FF0003FC0000
00FF0007FC0000
00FF0007F80000
01FF0007F80000
01FE000FF80000
01FE000FF80000
03FE000FF80000
3FFFFFFFFF8000
3FFFFFFFFF8000
7FFFFFFFFF8000
0003FFC0000000
0001FF00000000
0000FE00000000
00007C00000000
00007800000000
00007800000000
00007000000000
00007000000000
ENDCHAR

STARTCHAR afii10017
ENCODING 176
SWIDTH 802 0
DWIDTH 40 0
BBX 44 38 -5 0
BITMAP
000000070000
0000000F0000
0000000F8000
0000001F8000
0000003F8000
0000003F8000
0000007F8000
000000FF8000
000000FFC000
000001FFC000
000003FFC000
000003BFC000
0000071FC000
00000F1FC000
00000E1FE000
00001C1FE000
00003C1FE000
0000381FE000
0000780FE000
0000F00FF000
0000E00FF000
0001E00FF000
0003C00FF000
0003FFFFF000
0007FFFFF000
000FFFFFF800
000E0007F800
001E0007F800
003C0007F800
00380007F800
00780003F800
00F00003FC00
00F00003FC00
01F00003FC00
07F80003FE00
3FFF007FFFC0
3FFF007FFFC0
3FFF007FFFC0
ENDCHAR

STARTCHAR afii10018
ENCODING 177
SWIDTH 802 0
DWIDTH 40 0
BBX 44 37 -2 0
BITMAP
003FFFFFFFE0
003FFFFFFFE0
003FFFFFFFC0
0003FE001FC0
0003FE000FC0
0003FE0007C0
0003FC000780
0003FC000780
0007FC000780
0007F8000780
0007F8000700
0007F8000700
000FF8000000
000FF0000000
000FF0000000
000FF0000000
001FFFFE0000
001FFFFFC000
001FFFFFF000
003FE00FFC00
003FC003FC00
003FC003FE00
003FC001FE00
007FC001FF00
007F8001FF00
007F8001FF00
007F8001FF00
00FF8001FF00
00FF0001FE00
00FF0003FE00
01FF0007FC00
01FE0007FC00
01FE000FF800
03FE003FF000
3FFFFFFFC000
3FFFFFFF0000
7FFFFFE00000
ENDCHAR

STARTCHAR afii10019
ENCODING 178
SWIDTH 802 0
DWIDTH 40 0
BBX 43 37 -2 0
BITMAP
003FFFFFC000
003FFFFFF800
007FFFFFFE00
0003FE03FF00
0003FE00FF00
0003FC00FF80
0003FC007F80
0003FC007F80
0007F8007F80
0007F8007F80
0007F800FF80
000FF800FF00
000FF001FF00
000FF001FE00
000FF003FC00
001FF01FF000
001FFFFFC000
001FFFFC0000
001FFFFFC000
003FE00FF000
003FC007F800
003FC003FC00
003FC001FE00
007FC001FE00
007F8001FF00
007F8001FF00
00FF8001FF00
00FF8001FF00
00FF0001FF00
00FF0003FE00
01FF0007FE00
01FF0007FC00
01FE001FF800
03FF007FF000
3FFFFFFFE000
3FFFFFFF8000
7FFFFFF00000
ENDCHAR

STARTCHAR afii10020
ENCODING 179
SWIDTH 719 0
DWIDTH 36 0
BBX 44 37 -2 0
BITMAP
003FFFFFFFE0
003FFFFFFFE0
003FFFFFFFC0
0003FE003FC0
0003FE001FC0
0003FE000FC0
0003FC000F80
0003FC000780
0007FC000780
0007F8000780
0007F8000780
0007F8000700
000FF8000700
000FF0000000
000FF0000000
000FF0000000
001FF0000000
001FE0000000
001FE0000000
003FE0000000
003FC0000000
003FC0000000
003FC0000000
007FC0000000
007F80000000
007F80000000
007F80000000
00FF80000000
00FF00000000
00FF00000000
00FF00000000
01FE00000000
01FE00000000
03FE00000000
3FFFF0000000
3FFFF0000000
3FFFF0000000
ENDCHAR

STARTCHAR afii10021
ENCODING 180
SWIDTH 813 0
DWIDTH 41 0
BBX 54 45 -7 -8
BITMAP
00000FFFFFFFF8
00000FFFFFFFF0
00001FFFFFFFF0
000001FC01FF00
000000F801FE00
000000F001FE00
000000F003FE00
000001E003FC00
000001E003FC00
000001E007FC00
000001C007F800
000003C007F800
0000038007F800
000003800FF800
000007800FF000
000007000FF000
000007000FF000
00000F001FF000
00000E001FE000
00001E001FE000
00001C003FE000
00003C003FC000
00003C003FC000
000078003FC000
000070007FC000
0000F0007F8000
0000E0007F8000
0001E0007F8000
0003C000FF8000
00038000FF0000
00070000FF0000
000F0001FF0000
003C0001FF0000
00F80001FF0000
07FFFFFFFFF000
07FFFFFFFFF000
0FFFFFFFFFF000
0FE000000FE000
0F80000003E000
0F00000003E000
1E00000001C000
1E00000001C000
1C00000001C000
3C00000001C000
38000000038000
ENDCHAR

STARTCHAR afii10022
ENCODING 181
SWIDTH 740 0
DWIDTH 37 0
BBX 43 37 -2 0
BITMAP
003FFFFFFF80
003FFFFFFF80
003FFFFFFF00
0003FE007F00
0003FE001F00
0003FC001F00
0003FC001E00
0003FC000E00
0007FC000E00
0007F8000E00
0007F8060C00
0007F80E1C00
000FF80E0000
000FF01C0000
000FF03C0000
000FF0FC0000
001FFFFC0000
001FFFF80000
001FFFF80000
003FE1F80000
003FC0F80000
003FC0F00000
003FC0700000
007FC0700000
007F80701800
007F80E03800
007F80E03800
00FF80007800
00FF00007000
00FF0000F000
01FF0001F000
01FE0003E000
01FE000FE000
03FF007FE000
3FFFFFFFC000
3FFFFFFFC000
3FFFFFFFC000
ENDCHAR

STARTCHAR afii10024
ENCODING 182
SWIDTH 1177 0
DWIDTH 59 0
BBX 69 38 -5 0
BITMAP
0003C0000000000780
000FF001FFFF801FC0
001FF801FFFF807FE0
001FF803FFFF007FE0
001FFC001FF000FFE0
001FFC001FE000FFE0
001FFC001FE001FFE0
001FFC001FE001CFC0
00071C003FE0038380
00001C003FC0038000
00000C003FC0070000
00000C003FC0070000
00000C007FC00E0000
00000E007F800E0000
00000E007F801C0000
00000E00FF801C0000
00000E00FF80380000
00000600FF00780000
00000780FF01F00000
000003FFFFFFC00000
00003FFFFFFFE00000
0000FFFFFFFFF00000
0001FF01FE07F80000
0003FE03FE03FC0000
0003FC03FC03FC0000
0007F803FC01FC0000
000FF807FC01FC0000
000FF007F801FE0000
001FE007F800FE0000
003FE007F800FE0000
007FC00FF800FF0000
007F800FF0007F0000
00FF800FF0007F0000
01FF001FF0007F8000
03FE001FF0007FC000
3FFC03FFFF003FF800
3FFC03FFFF003FF800
3FF803FFFF003FF000
ENDCHAR

STARTCHAR afii10025
ENCODING 183
SWIDTH 656 0
DWIDTH 33 0
BBX 36 39 0 -1
BITMAP
00003FC000
0003FFF800
001FFFFE00
003F80FF00
003F007F80
003C003FC0
007C003FC0
0078003FC0
00F0003FC0
00E0003FC0
00E0003FC0
0000007FC0
0000007F80
000000FF00
000001FF00
000003FE00
00000FF800
00003FF000
000FFF8000
000FFF0000
000FFFE000
00003FF000
00000FF800
00000FF800
000007FC00
000007FC00
000007FC00
000007FC00
000007FC00
100007FC00
70000FF800
38000FF800
38001FF000
3C003FE000
1E007FE000
0FC3FF8000
07FFFF0000
03FFFC0000
00FFE00000
ENDCHAR

STARTCHAR afii10026
ENCODING 184
SWIDTH 865 0
DWIDTH 43 0
BBX 51 37 -2 0
BITMAP
003FFFF1FFFFC0
003FFFF1FFFF80
003FFFF1FFFF80
0003FE000FF800
0003FE000FF000
0003FC000FF000
0003FC001FF000
0003FC003FE000
0007FC007FE000
0007F800FFE000
0007F801FFE000
0007F803FFC000
000FF807BFC000
000FF00F7FC000
000FF01E7FC000
001FF03C7F8000
001FE0787F8000
001FE070FF8000
001FE0E0FF0000
003FE1C0FF0000
003FC3C0FF0000
003FC781FF0000
003FCF01FE0000
007FDE01FE0000
007FBC03FE0000
007FF803FE0000
00FFF003FC0000
00FFE003FC0000
00FFC007FC0000
00FF8007FC0000
01FF0007F80000
01FE0007F80000
01FE000FF80000
03FE000FF80000
3FFFF1FFFFC000
7FFFF1FFFF8000
7FFFE1FFFF8000
ENDCHAR

STARTCHAR afii10027
ENCODING 185
SWIDTH 865 0
DWIDTH 43 0
BBX 52 48 -3 0
BITMAP
000000F00F0000
000001F80F8000
000001F81F8000
000001F80F8000
000000F00F8000
000000F81F0000
0000007FFE0000
0000001FF80000
00000000000000
00000000000000
00000000000000
001FFFF8FFFFC0
001FFFF8FFFFC0
001FFFF1FFFF80
0001FF000FF800
0001FF0007F800
0001FE000FF000
0001FE001FF000
0003FE003FF000
0003FC003FF000
0003FC007FE000
0003FC00FFE000
0007FC01FFE000
0007F803FFE000
0007F807BFC000
0007F80F3FC000
000FF81E3FC000
000FF03C7F8000
000FF0787F8000
001FF0F07F8000
001FE1E07F8000
001FE1C0FF0000
001FE380FF0000
003FE700FF0000
003FCE01FF0000
003FDE01FE0000
003FFC01FE0000
007FF801FE0000
007FF003FE0000
007FE003FC0000
007FC003FC0000
00FF8003FC0000
00FF0007FC0000
00FF0007F80000
01FF0007FC0000
3FFFF8FFFFC000
3FFFF8FFFFC000
3FFFF0FFFF8000
ENDCHAR

STARTCHAR afii10028
ENCODING 186
SWIDTH 844 0
DWIDTH 42 0
BBX 49 38 -2 0
BITMAP
0000000000F800
003FFFF001FC00
003FFFF007FE00
007FFFF007FE00
0003FE000FFE00
0003FE001FFE00
0003FC001FFE00
0003FC003C7C00
0003FC00383000
0007FC00700000
0007F800700000
0007F800E00000
000FF800E00000
000FF001C00000
000FF003C00000
000FF003800000
001FF007000000
001FE01E000000
001FFFF8000000
003FFFFE000000
003FFFFF000000
003FC07F800000
003FC03FC00000
007FC03FC00000
007F801FC00000
007F801FE00000
007F801FE00000
00FF800FE00000
00FF000FE00000
00FF000FF00000
01FF000FF00000
01FF0007F00000
01FE0007F80000
01FE0007F80000
03FE0007FC0000
3FFFF003FF8000
3FFFF003FF8000
3FFFF003FF8000
ENDCHAR

STARTCHAR afii10029
ENCODING 187
SWIDTH 865 0
DWIDTH 43 0
BBX 51 38 -2 -1
BITMAP
0000FFFFFFFFC0
0000FFFFFFFF80
0000FFFFFFFF80
00000FE00FF800
00000FC00FF000
00000F800FF000
00000F801FE000
00000F001FE000
00000F001FE000
00000F001FE000
00000E003FC000
00000E003FC000
00001E003FC000
00001C007FC000
00001C007F8000
00003C007F8000
000038007F8000
00003800FF0000
00007800FF0000
00007000FF0000
00007000FF0000
0000F001FE0000
0000E001FE0000
0001E001FE0000
0001C003FE0000
0001C003FC0000
00038003FC0000
00038003FC0000
00070007F80000
00070007F80000
1F0E0007F80000
3F8E000FF80000
7FFC000FF00000
7FFC000FF80000
7FF801FFFF8000
7FF001FFFF8000
3FE001FFFF0000
1F800000000000
ENDCHAR

STARTCHAR afii10030
ENCODING 188
SWIDTH 1031 0
DWIDTH 52 0
BBX 59 37 -2 0
BITMAP
003FFFC0003FFFC0
003FFFC0003FFFC0
007FFFC0007FFF80
0001FFC0007FF800
0001FFC000EFF000
0001FFC001EFF000
00039FC001DFF000
00039FC003DFE000
00039FC0079FE000
00039FE0071FE000
00071FE00F3FE000
00071FE00E3FC000
00071FE01E3FC000
000F1FE03C3FC000
000E1FE0387FC000
000E1FE0787F8000
000E1FE0707F8000
001C0FE0E07F8000
001C0FE1E0FF0000
001C0FE1C0FF0000
001C0FF3C0FF0000
00380FF381FF0000
00380FF701FE0000
00380FFF01FE0000
00780FFE01FE0000
00700FFE03FE0000
00700FFC03FC0000
007007F803FC0000
00E007F803FC0000
00E007F007F80000
00E007F007F80000
01E007E007F80000
01F007C00FF80000
07F807C00FF80000
3FFF0780FFFFC000
3FFF0701FFFF8000
3FFF0701FFFF8000
ENDCHAR

STARTCHAR afii10031
ENCODING 189
SWIDTH 865 0
DWIDTH 43 0
BBX 51 37 -2 0
BITMAP
003FFFF0FFFFC0
003FFFF1FFFF80
007FFFF1FFFF80
0003FE001FF800
0003FE000FF000
0003FC001FF000
0003FC001FF000
0007FC001FE000
0007FC001FE000
0007F8003FE000
0007F8003FC000
000FF8003FC000
000FF0003FC000
000FF0007FC000
000FF0007F8000
001FF0007F8000
001FFFFFFF8000
001FFFFFFF8000
001FFFFFFF0000
003FC000FF0000
003FC001FF0000
003FC001FE0000
007FC001FE0000
007F8001FE0000
007F8003FE0000
007F8003FC0000
00FF8003FC0000
00FF0003FC0000
00FF0007FC0000
00FF0007F80000
01FF0007F80000
01FE000FF80000
01FE000FF80000
03FE000FF80000
3FFFF1FFFF8000
3FFFF1FFFF8000
7FFFF1FFFF8000
ENDCHAR

STARTCHAR afii10032
ENCODING 190
SWIDTH 823 0
DWIDTH 41 0
BBX 41 39 2 -1
BITMAP
00000FF00000
00007FFE0000
0001FFFF8000
0007F81FE000
001FE007F000
003FC003F000
007F8003F800
00FF0001FC00
01FF0001FC00
01FE0001FC00
03FE0001FE00
07FC0001FE00
07FC0001FE00
0FFC0001FE00
0FF80003FE00
1FF80003FE00
1FF80003FE00
1FF00003FE00
1FF00003FE00
3FF00007FE00
3FE00007FE00
3FE00007FC00
3FE00007FC00
3FE0000FFC00
3FE0000FF800
3FC0000FF800
3FC0001FF000
3FC0001FF000
3FC0001FE000
1FC0003FE000
1FC0003FC000
1FE0007F8000
0FE000FF0000
07E001FE0000
07F003FC0000
01FC0FF00000
00FFFFE00000
003FFF000000
0007F8000000
ENDCHAR

STARTCHAR afii10033
ENCODING 191
SWIDTH 865 0
DWIDTH 43 0
BBX 52 37 -3 0
BITMAP
001FFFFFFFFFC0
001FFFFFFFFFC0
003FFFFFFFFFC0
0001FF0007FC00
0001FE0007F800
0001FE000FF800
0001FE000FF000
0003FE000FF000
0003FC000FF000
0003FC001FF000
0007FC001FE000
0007FC001FE000
0007F8003FE000
0007F8003FE000
000FF8003FC000
000FF8003FC000
000FF0007FC000
000FF0007F8000
001FF0007F8000
001FE0007F8000
001FE000FF8000
001FE000FF0000
003FE000FF0000
003FC000FF0000
003FC001FF0000
007FC001FE0000
007FC001FE0000
007F8003FE0000
007F8003FC0000
00FF8003FC0000
00FF8003FC0000
00FF0007FC0000
00FF0007F80000
01FF0007FC0000
3FFFF8FFFFC000
3FFFF0FFFFC000
3FFFF1FFFFC000
ENDCHAR

STARTCHAR afii10034
ENCODING 192
SWIDTH 771 0
DWIDTH 39 0
BBX 43 37 -2 0
BITMAP
003FFFFF8000
003FFFFFF800
003FFFFFFC00
0003FE03FE00
0003FE00FF00
0003FE007F80
0003FC007F80
0003FC007FC0
0003FC007FC0
0007FC007FC0
0007F8007FC0
0007F8007FC0
000FF800FF80
000FF000FF80
000FF001FF80
000FF001FF00
001FF003FE00
001FE00FFC00
001FFFFFF800
001FFFFFE000
003FFFFE0000
003FC0000000
003FC0000000
003FC0000000
007FC0000000
007F80000000
007F80000000
00FF80000000
00FF00000000
00FF00000000
00FF00000000
01FF00000000
01FE00000000
03FE00000000
3FFFFC000000
3FFFF8000000
3FFFF8000000
ENDCHAR

STARTCHAR afii10035
ENCODING 193
SWIDTH 740 0
DWIDTH 37 0
BBX 39 39 2 -1
BITMAP
00000FF800
00007FFF00
0001FFFFC0
0007FC07F0
001FF003F8
003FE001FC
007FC000F8
00FF8000F8
01FF000078
01FF000078
03FE000078
07FC000070
07FC000070
0FFC000070
0FF8000070
1FF8000000
1FF0000000
1FF0000000
1FF0000000
3FF0000000
3FF0000000
3FE0000000
3FE0000000
3FE0000000
3FE0000000
3FE0000000
3FE0000000
3FF00001C0
3FF00003C0
1FF0000380
1FF8000780
0FF8000F00
0FFC001E00
07FE007C00
03FF81F800
01FFFFF000
00FFFFE000
003FFF8000
0003F80000
ENDCHAR

STARTCHAR afii10036
ENCODING 194
SWIDTH 750 0
DWIDTH 38 0
BBX 40 37 3 0
BITMAP
03FFFFFFFE
03FFFFFFFC
07FFFFFFFC
07F07FC1FC
07C07F80FC
0F807F8078
0F00FF8078
1F00FF0078
1E00FF0078
1C00FF0070
3C01FF0070
3801FE0070
3801FE0070
0001FE0000
0003FE0000
0003FC0000
0003FC0000
0003FC0000
0007F80000
0007F80000
0007F80000
000FF80000
000FF00000
000FF00000
000FF00000
001FF00000
001FE00000
001FE00000
001FE00000
003FC00000
003FC00000
003FC00000
007FC00000
007FC00000
1FFFFF0000
1FFFFE0000
3FFFFE0000
ENDCHAR

STARTCHAR afii10037
ENCODING 195
SWIDTH 781 0
DWIDTH 39 0
BBX 45 38 2 -1
BITMAP
07FFF81FFFE0
07FFF81FFFE0
07FFF81FFFE0
01FF80007E00
00FF80007800
00FF80007800
007F8000F000
007F8001E000
007FC001C000
007FC003C000
003FC0078000
003FC0070000
003FE00E0000
003FE01E0000
001FE03C0000
001FE0380000
001FF0700000
001FF0F00000
000FF1E00000
000FF1C00000
000FFB800000
000FFF800000
0007FF000000
0007FE000000
0007FC000000
0007FC000000
0003F8000000
0003F0000000
0603E0000000
1F83E0000000
3FC3C0000000
3FC380000000
3FC700000000
3FCF00000000
3FFE00000000
1FFC00000000
0FF000000000
03C000000000
ENDCHAR

STARTCHAR afii10038
ENCODING 196
SWIDTH 990 0
DWIDTH 49 0
BBX 47 37 3 0
BITMAP
00003FFFFC00
00003FFFFC00
00003FFFF800
000001FF0000
000001FE0000
0000FFFFF800
000FFFFFFF00
003FFFFFFFC0
00FF83FC1FE0
01FE03FC0FF0
07FC03FC07F8
07FC07FC07F8
0FF807F807F8
1FF007F807FC
1FF007F807FC
3FE00FF007FC
3FE00FF007FC
3FE00FF007FC
7FC01FF007FC
7FC01FE00FF8
7FC01FE00FF8
7FC01FE00FF8
7FC03FE01FF0
3FC03FC01FF0
3FC03FC03FE0
3FC07FC07FC0
1FE07F80FF80
1FE07F81FF00
0FF87F87FE00
03FFFFFFF800
00FFFFFFC000
0003FFE00000
0000FF000000
0001FF000000
003FFFFC0000
003FFFF80000
007FFFF80000
ENDCHAR

STARTCHAR afii10039
ENCODING 197
SWIDTH 823 0
DWIDTH 41 0
BBX 52 37 -4 0
BITMAP
001FFFFC1FFFC0
001FFFF81FFFC0
001FFFF81FFFC0
0001FF8003FC00
0000FF8003F800
00007F8003F000
00007FC003C000
00003FC0078000
00003FE01F0000
00001FE03E0000
00001FF07C0000
00000FF0F00000
00000FF9E00000
000007FBC00000
000007FF800000
000003FF000000
000003FE000000
000001FE000000
000001FE000000
000003FF000000
000007FF000000
00000FFF800000
00001E7F800000
00003C7FC00000
0000783FC00000
0001F03FE00000
0003E01FE00000
0007801FF00000
000F000FF00000
001E000FF80000
003E0007F80000
00FC0007FC0000
01FC0007FC0000
07FE0007FE0000
3FFFC07FFFE000
3FFFC0FFFFE000
3FFFC0FFFFE000
ENDCHAR

STARTCHAR afii10040
ENCODING 198
SWIDTH 865 0
DWIDTH 43 0
BBX 52 45 -2 -8
BITMAP
003FFFF0FFFFC0
003FFFF1FFFFC0
003FFFF1FFFF80
0003FE000FF800
0003FE000FF000
0003FC000FF000
0003FC001FF000
0003FC001FE000
0007FC001FE000
0007F8003FE000
0007F8003FE000
000FF8003FC000
000FF8003FC000
000FF0007FC000
000FF0007F8000
001FF0007F8000
001FE0007F8000
001FE000FF8000
001FE000FF0000
003FE000FF0000
003FC001FF0000
003FC001FF0000
007FC001FE0000
007FC001FE0000
007F8003FE0000
007F8003FC0000
00FF8003FC0000
00FF0003FC0000
00FF0007FC0000
00FF0007F80000
01FF0007F80000
01FE000FF80000
01FE000FF80000
03FE000FFC0000
3FFFFFFFFFC000
3FFFFFFFFFC000
7FFFFFFFFFC000
000000003FC000
000000000F8000
000000000F8000
000000000F8000
00000000070000
00000000070000
00000000070000
00000000070000
ENDCHAR

STARTCHAR afii10041
ENCODING 199
SWIDTH 823 0
DWIDTH 41 0
BBX 44 37 4 0
BITMAP
3FFFF8FFFFC0
3FFFF1FFFFC0
3FFFF1FFFFC0
03FE000FF800
01FE000FF000
03FE000FF000
03FC001FF000
03FC001FF000
03FC001FE000
07FC001FE000
07F8003FE000
07F8003FC000
07F8003FC000
0FF8003FC000
0FF0007FC000
0FF0007F8000
0FF000FF8000
0FF803FF8000
0FFC0FFF0000
07FFFFFF0000
07FFFEFF0000
03FFF9FF0000
01FFE1FE0000
003F01FE0000
000001FE0000
000003FE0000
000003FC0000
000003FC0000
000007FC0000
000007F80000
000007F80000
000007F80000
00000FF80000
00000FF80000
0000FFFF8000
0001FFFF8000
0001FFFF8000
ENDCHAR

STARTCHAR afii10042
ENCODING 200
SWIDTH 1240 0
DWIDTH 62 0
BBX 70 37 -2 0
BITMAP
003FFFE1FFFE0FFFF8
003FFFE1FFFE1FFFF8
007FFFE1FFFE1FFFF0
0003FE003FF001FF00
0003FE003FE001FE00
0003FC003FE001FE00
0003FC003FC003FE00
0003FC003FC003FC00
0007FC007FC003FC00
0007F8007FC007FC00
0007F8007F8007FC00
000FF8007F8007F800
000FF000FF8007F800
000FF000FF000FF800
000FF000FF000FF000
001FF000FF000FF000
001FE001FF000FF000
001FE001FE001FF000
001FE001FE001FE000
003FE003FE001FE000
003FC003FE003FE000
003FC003FC003FC000
007FC003FC003FC000
007FC007FC003FC000
007F8007FC007FC000
007F8007F8007F8000
00FF8007F8007F8000
00FF000FF8007F8000
00FF000FF000FF8000
00FF000FF000FF0000
01FF001FF000FF0000
01FE001FF001FF0000
01FE001FE001FF0000
03FE001FE001FF0000
3FFFFFFFFFFFFFF000
3FFFFFFFFFFFFFF000
3FFFFFFFFFFFFFF000
ENDCHAR

STARTCHAR afii10043
ENCODING 201
SWIDTH 1240 0
DWIDTH 62 0
BBX 70 45 -2 -8
BITMAP
003FFFE1FFFE0FFFF8
003FFFE1FFFE1FFFF8
007FFFE1FFFE1FFFF0
0003FE003FF001FF00
0003FE003FE001FE00
0003FC003FE001FE00
0003FC003FC003FE00
0003FC003FC003FC00
0007FC007FC003FC00
0007F8007FC003FC00
0007F8007F8007FC00
000FF8007F8007F800
000FF000FF8007F800
000FF000FF000FF800
000FF000FF000FF800
001FF000FF000FF000
001FE001FF000FF000
001FE001FE001FF000
001FE001FE001FE000
003FE003FE001FE000
003FC003FE001FE000
003FC003FC003FE000
007FC003FC003FC000
007FC007FC003FC000
007F8007FC007FC000
007F8007F8007F8000
00FF8007F8007F8000
00FF000FF8007F8000
00FF000FF000FF8000
00FF000FF000FF0000
01FF001FF000FF0000
01FE001FF000FF0000
01FE001FE001FF0000
03FE001FE001FF8000
3FFFFFFFFFFFFFFC00
3FFFFFFFFFFFFFFC00
3FFFFFFFFFFFFFF800
00000000000003F800
00000000000001F800
00000000000000F000
00000000000000F000
00000000000000F000
00000000000000F000
00000000000000E000
00000000000000E000
ENDCHAR

STARTCHAR afii10044
ENCODING 202
SWIDTH 938 0
DWIDTH 47 0
BBX 43 37 3 0
BITMAP
03FFFFFC0000
07FFFFFC0000
07FFFFFC0000
0FE07F800000
0FC0FF800000
0F00FF000000
1F00FF000000
1E01FF000000
1C01FF000000
3801FE000000
3801FE000000
7003FE000000
0003FE000000
0003FC000000
0003FC000000
0007FC000000
0007FFFF0000
0007FFFFF000
0007FFFFFC00
000FF803FF00
000FF000FF00
000FF0007F80
000FF0007F80
001FF0007FC0
001FE0007FC0
001FE0007FC0
003FE0007FC0
003FC0007FC0
003FC000FF80
003FC000FF80
007FC001FF00
007F8003FF00
007F8007FE00
00FF801FFC00
0FFFFFFFF800
0FFFFFFFC000
1FFFFFFE0000
ENDCHAR

STARTCHAR afii10045
ENCODING 203
SWIDTH 1240 0
DWIDTH 62 0
BBX 70 37 -2 0
BITMAP
003FFFF000007FFFF8
003FFFF000007FFFF0
007FFFF00000FFFFF0
0003FE00000003FE00
0003FE00000003FC00
0003FC00000003FC00
0003FC00000007FC00
0003FC00000007F800
0007FC00000007F800
0007F800000007F800
0007F80000000FF800
0007F80000000FF000
000FF80000000FF000
000FF00000001FF000
000FF00000001FF000
001FF00000001FE000
001FFFFE00001FE000
001FFFFFC0003FE000
001FFFFFF0003FC000
003FE00FFC003FC000
003FC003FC003FC000
003FC001FE007FC000
003FC001FE007F8000
007FC001FF007F8000
007F8001FF00FF8000
007F8001FF00FF0000
00FF8001FF00FF0000
00FF0001FF00FF0000
00FF0003FE01FF0000
00FF0003FE01FE0000
01FF0007FE01FE0000
01FE000FFC01FE0000
01FE001FF803FE0000
03FE007FF003FE0000
3FFFFFFFE07FFFF000
3FFFFFFF00FFFFF000
7FFFFFF800FFFFF000
ENDCHAR

STARTCHAR afii10046
ENCODING 204
SWIDTH 802 0
DWIDTH 40 0
BBX 41 37 -2 0
BITMAP
003FFFF00000
003FFFF00000
007FFFF00000
0003FE000000
0003FE000000
0003FC000000
0003FC000000
0003FC000000
0007FC000000
0007F8000000
0007F8000000
0007F8000000
000FF8000000
000FF0000000
000FF0000000
001FF0000000
001FFFFC0000
001FFFFFC000
001FFFFFF000
003FE00FFC00
003FC003FC00
003FC003FE00
003FC001FE00
007FC001FF00
007F8001FF00
007F8001FF00
00FF8001FF00
00FF0001FF00
00FF0003FE00
00FF0003FE00
01FF0007FC00
01FE000FFC00
01FE001FF800
03FE007FF000
3FFFFFFFC000
3FFFFFFF0000
7FFFFFF80000
ENDCHAR

STARTCHAR afii10047
ENCODING 205
SWIDTH 740 0
DWIDTH 37 0
BBX 38 39 0 -1
BITMAP
0000FFC000
0007FFF800
001FFFFE00
007FC0FF00
01FE003F80
01FC001FC0
01F8001FC0
03F0000FE0
03E0000FF0
03E0000FF0
03C0000FF0
0380000FF8
0780000FF8
0780000FF8
0000000FF8
0000000FF8
0000000FF8
0000000FF8
0000FFFFF8
0001FFFFF8
0001FFFFF0
0000001FF0
0000001FF0
0000003FF0
0000003FE0
0000003FE0
0000007FC0
7000007FC0
380000FF80
380001FF00
380001FF00
3C0003FE00
1E0007FC00
1F001FF800
0FC07FF000
07FFFFC000
03FFFF0000
00FFFC0000
001FC00000
ENDCHAR

STARTCHAR afii10048
ENCODING 206
SWIDTH 1135 0
DWIDTH 57 0
BBX 59 39 -2 -1
BITMAP
00000000007F8000
003FFFE003FFE000
003FFFE00FFFF800
007FFFC03FC0FC00
0003FC007F007E00
0003FC00FE007F00
0003F801FC003F00
0007F803FC003F80
0007F807F8003F80
0007F807F8003F80
0007F00FF0003FC0
000FF00FF0003FC0
000FF01FF0003FC0
000FF01FE0003FC0
000FE03FE0003FC0
001FE03FE0003FC0
001FE03FC0007FC0
001FE07FC0007FC0
003FFFFFC0007FC0
003FFFFFC0007F80
003FFFFF8000FF80
003FC0FF8000FF80
007F80FF8000FF80
007F80FF8000FF00
007F80FF0001FF00
007F00FF0001FF00
00FF00FF0001FE00
00FF00FF0003FE00
00FF007F0003FC00
01FE007F0003F800
01FE007F0007F800
01FE007F0007F000
01FE003F000FE000
03FC003F801FC000
03FC001F803F8000
3FFFE00FE0FF0000
3FFFE007FFFC0000
7FFFE001FFF00000
000000003F800000
ENDCHAR

STARTCHAR afii10049
ENCODING 207
SWIDTH 844 0
DWIDTH 42 0
BBX 51 37 -2 0
BITMAP
000001FFFFFF80
00000FFFFFFF80
00003FFFFFFF00
0000FFE01FF000
0001FF801FE000
0001FF001FE000
0003FE003FE000
0003FE003FC000
0007FC003FC000
0007FC003FC000
0007FC007FC000
0007FC007F8000
0007FC007F8000
0003FC00FF8000
0003FE00FF8000
0001FE00FF0000
0000FF80FF0000
00003FFFFF0000
00001FFFFE0000
0000FFFFFE0000
0001FF01FE0000
0003FE03FE0000
0007FC03FC0000
0007FC03FC0000
000FF807FC0000
001FF007FC0000
001FF007F80000
003FE007F80000
007FE00FF80000
007FC00FF00000
00FF800FF00000
01FF800FF00000
03FF001FF00000
07FE001FF00000
3FFE01FFFF0000
3FFC03FFFF0000
3FFC03FFFF0000
ENDCHAR

STARTCHAR afii10065
ENCODING 208
SWIDTH 667 0
DWIDTH 33 0
BBX 34 29 0 -1
BITMAP
000FC00000
003FF0FE00
007FF9FC00
00FFF9FC00
01FF1DFC00
03FE0FFC00
03FC07F800
07F807F800
07F807F800
0FF007F000
0FF007F000
1FE007F000
1FE00FF000
1FE00FE000
3FC00FE000
3FC00FE000
3FC01FE000
3FC01FC000
3F801FC000
3F801FC000
3F803F8300
3F807F8700
3F80FF8E00
3FC1FF9C00
1FE7FFB800
1FFF3FF800
0FFE3FF000
07FC3FC000
03E00F0000
ENDCHAR

STARTCHAR afii10066
ENCODING 209
SWIDTH 594 0
DWIDTH 30 0
BBX 34 39 1 -1
BITMAP
0000000300
0000000F00
0003FFFE00
000FFFFE00
001FFFFC00
003FFFF800
007FFFF000
00FFFE0000
01F8000000
01E0000000
03C0000000
0383F00000
070FFE0000
073FFF0000
0E7C1F8000
0EF80FC000
0DF00FC000
1FF00FC000
1BE00FE000
1FE00FE000
3FC00FE000
3FC00FE000
3FC00FE000
3F801FE000
3F801FE000
7F801FE000
7F801FC000
7F003FC000
7F003FC000
7F003F8000
7F007F8000
3F007F0000
3F00FF0000
3F00FE0000
1F01FC0000
1F03F80000
0FC7F00000
07FFC00000
01FF000000
ENDCHAR

STARTCHAR afii10067
ENCODING 210
SWIDTH 563 0
DWIDTH 28 0
BBX 28 29 0 -1
BITMAP
0003FF00
001FFF80
003F1FC0
00FE0FE0
01FC0FE0
03F80FE0
03F80FE0
07F00FE0
07F01FC0
0FE03F80
0FE07F00
1FE0FC00
1FE3F000
1FDF8000
3FFFFC00
3FFFFE00
3FC07F00
3F807F80
3F807F80
3F807F80
3F807F80
3F807F80
1F807F80
1F807F00
0F80FF00
0FC1FE00
07E3FC00
01FFF800
007FC000
ENDCHAR

STARTCHAR afii10068
ENCODING 211
SWIDTH 500 0
DWIDTH 25 0
BBX 27 29 0 -1
BITMAP
0007F800
001FFE00
007FFF00
00F8FF80
03C07F80
07803F80
00003F80
00003F80
00007F80
00007F00
0000FE00
0003FC00
0007F000
001FC000
007F0000
01FC0000
07F00000
0FE00000
1FC00000
3F800000
3F800000
7F800000
7F801C00
7F803C00
7FC07800
3FE1F000
1FFFC000
0FFF0000
03FC0000
ENDCHAR

STARTCHAR afii10069
ENCODING 212
SWIDTH 594 0
DWIDTH 30 0
BBX 30 39 1 -1
BITMAP
001FE000
001FFC00
0000FE00
00003F00
00000F80
00000FC0
000007E0
000007E0
000003E0
000003F0
000FC3F0
007FE3F0
00FFFBF0
03FE3BF0
07FC1FF0
07F80FF0
0FF00FF0
1FF00FF0
1FE00FF0
3FE00FF0
3FC00FF0
3FC00FF0
3FC00FF0
7FC00FE0
7F801FE0
7F801FE0
7F801FE0
7F801FC0
7F003FC0
7F003FC0
7F003F80
3F007F80
3F007F00
3F00FE00
1F01FC00
0F81F800
0FC7F000
03FFC000
00FF0000
ENDCHAR

STARTCHAR afii10070
ENCODING 213
SWIDTH 500 0
DWIDTH 25 0
BBX 27 29 0 -1
BITMAP
0007F800
001FFE00
007E7F00
00FC3F80
01F81F80
03F01F80
07F01F80
07E03F80
0FE03F80
1FE03F00
1FC07F00
1FC0FE00
3FC1FC00
3F83F800
3F87E000
7F9FC000
7FFE0000
7FF80000
7FC00000
7F800000
7F800000
7F800000
3FC01C00
3FC03C00
3FE0F800
1FFFE000
0FFFC000
07FF0000
00F80000
ENDCHAR

STARTCHAR afii10072
ENCODING 214
SWIDTH 1146 0
DWIDTH 57 0
BBX 60 29 -1 -1
BITMAP
0007C0000000F800
003FF001F803FF00
007FF803F80FFF80
01FFFC03F01F8FC0
03E1FE03F03F0FC0
0780FE07F07E0FE0
0F007F07E0FC0FE0
00007F07E1FC0FE0
00007F07E1F807C0
00007F0FE3F80380
00007F0FC3F00000
00007F0FC3F00000
00007F1FC7F00000
00007FFFFFF00000
00007FFFFFE00000
0000FE3F87E00000
0000FE3F0FE00000
0000FC3F0FE00000
0000FC3F0FE00000
1C01F87F0FE00000
3E01F87E0FE00000
7F03F07E0FE00000
7F03F0FE0FF00E00
7F07E0FC07F01E00
3F07C0FC07F87C00
3F0FC0FC03FFF800
1F3F81FC01FFE000
0FFE01F800FFC000
03F80000003E0000
ENDCHAR

STARTCHAR afii10073
ENCODING 215
SWIDTH 542 0
DWIDTH 27 0
BBX 27 29 0 -1
BITMAP
000FF800
007FFE00
01FFFF80
01F83F80
01E01FC0
01C01FC0
03C01FC0
03801FC0
03001F80
00001F80
00003F00
00007E00
0001FC00
000FF000
001FF000
001FFC00
0000FE00
00007F00
1C007F00
3E007F00
3F007F00
7F007F00
7F00FF00
7E00FE00
3E01FE00
3E03FC00
1F07F800
0FFFE000
01FF0000
ENDCHAR

STARTCHAR afii10074
ENCODING 216
SWIDTH 677 0
DWIDTH 34 0
BBX 33 28 1 -1
BITMAP
0FFF00FE00
0FFE01FE00
1FFE01FC00
01FE01FC00
01FC01FC00
01FC03F800
01FC03F800
03F803F800
03F807F000
03F807F000
07F007F000
07F00FE000
07F00FE000
0FE00FE000
0FE00FE000
0FE01FC000
1FE01FC000
1FC03FC000
1FC07F8000
1FC0FF8700
3F81FF8600
3F83FF0E00
3F8F7F1C00
3FFE7F3800
3FFC7FF000
1FF87FE000
1FE03FC000
07801F0000
ENDCHAR

STARTCHAR afii10075
ENCODING 217
SWIDTH 677 0
DWIDTH 34 0
BBX 33 37 1 -1
BITMAP
0001C02000
0001E06000
0001F0C000
0001FFC000
0000FF8000
00003E0000
0000000000
0000000000
0000000000
0FFF00FE00
0FFE01FE00
1FFE01FC00
01FE01FC00
01FC01FC00
01FC03F800
01FC03F800
03F803F800
03F807F000
03F807F000
07F007F000
07F00FF000
07F00FE000
0FE00FE000
0FE00FE000
0FE01FC000
1FE01FC000
1FC03FC000
1FC07F8000
1FC0FF8700
3F81FF8600
3F83FF0E00
3F8F7F1C00
3FFE7F3800
3FFC7FF000
1FF87FE000
1FE03FC000
07801F0000
ENDCHAR

STARTCHAR afii10076
ENCODING 218
SWIDTH 646 0
DWIDTH 32 0
BBX 35 28 0 0
BITMAP
003F001E00
0FFF007F80
0FFF00FF80
01FE00FF80
00FE01FF80
00FE039F80
01FC030700
01FC070000
01FC0E0000
03FC0C0000
03F81C0000
03F8380000
03FFF00000
07FFFC0000
07FFFC0000
07F1FE0000
07F0FE0000
0FE0FF0000
0FE07F0000
0FE07F0000
1FE07F0000
1FC07F8000
1FC03F8000
1FC03F8000
3F803FC000
3F803FE000
3F801FF000
7F801FF000
ENDCHAR

STARTCHAR afii10077
ENCODING 219
SWIDTH 708 0
DWIDTH 35 0
BBX 39 29 -2 -1
BITMAP
0007FFFFE0
0007FFFFE0
0001FE0FE0
0000FC0FE0
0000781FC0
0000F01FC0
0000E01FC0
0000E03FC0
0000E03F80
0001C03F80
0001C03F80
0001C07F00
0001807F00
0003807F00
0003807F00
000300FE00
000700FE00
000700FE00
000E01FC00
000E01FC00
000C01FC38
001C01FC30
1C1803F870
3F3803F8E0
7FF003F9C0
7FF003FF80
3FE003FF00
3FC001FE00
0F0000F800
ENDCHAR

STARTCHAR afii10078
ENCODING 220
SWIDTH 948 0
DWIDTH 47 0
BBX 51 28 -3 -1
BITMAP
000FFFC007FE00
000FFFC007FE00
0001FFC00EFE00
0001FFC00DFC00
0000FFC01DFC00
0001DFC039FC00
0001DFC03BFC00
0001CFC073F800
0001CFC063F800
00018FC0E3F800
00018FC1C7F000
00038FC187F000
00038FC387F000
00030FC70FF000
00030FC70FE000
00070FCE0FE000
00060FCC0FE000
00060FDC1FC000
000E0FF81FC000
000C0FF01FC380
001C0FF01FC300
1E1C0FE03F8700
3F380FE03F8E00
3FF80FC03F9C00
3FF00F803FF800
3FE00F803FF000
3FC00F001FE000
0F0000000F0000
ENDCHAR

STARTCHAR afii10079
ENCODING 221
SWIDTH 688 0
DWIDTH 34 0
BBX 35 28 0 -1
BITMAP
0FFF00FE00
0FFF00FE00
03FE00FE00
00FE01FE00
00FE01FC00
01FC01FC00
01FC03FC00
01FC03F800
03FC03F800
03F803F800
03F807F800
03FFFFF000
07FFFFF000
07FFFFF000
07F00FE000
0FF00FE000
0FE00FE000
0FE01FE000
0FE01FC000
1FC01FC380
1FC01FC300
1FC03F8700
3FC03F8E00
3F803F9C00
3F803FF800
3F803FF000
7F001FE000
00000F8000
ENDCHAR

STARTCHAR afii10080
ENCODING 222
SWIDTH 594 0
DWIDTH 30 0
BBX 29 29 1 -1
BITMAP
000FF800
003FFE00
00FE3F00
01FC1F80
03F80FC0
07F00FC0
0FF00FC0
0FE00FE0
1FE00FE0
1FE00FE0
3FC00FE0
3FC00FE0
3FC01FE0
3F801FE0
7F801FE0
7F801FE0
7F803FC0
7F003FC0
7F003FC0
7F003F80
7F007F80
3F007F00
3F00FF00
3F00FE00
1F01FC00
1F83F800
0FC7F000
03FFC000
00FF0000
ENDCHAR

STARTCHAR afii10081
ENCODING 223
SWIDTH 677 0
DWIDTH 34 0
BBX 35 29 0 -1
BITMAP
03FF03F000
0FFE0FF800
0FFE1FFC00
01FE3FFC00
00FE7BFC00
00FCE1FC00
01FDC1FC00
01FF81FC00
01FF03F800
03FE03F800
03FC03F800
03F807F800
03F807F000
07F807F000
07F007F000
07F00FE000
07F00FE000
0FE00FE000
0FE01FE000
0FE01FC000
1FE01FC380
1FC01FC300
1FC03F8700
1FC03F8E00
3F803F9C00
3F803FF800
3F803FF000
7F801FE000
00000F8000
ENDCHAR

STARTCHAR afii10082
ENCODING 224
SWIDTH 646 0
DWIDTH 32 0
BBX 39 37 -6 -9
BITMAP
0001FE1F80
001FFE7FC0
003FFCFFE0
0003FDFFF0
0003FFCFF8
0003FF07F8
0003FE03F8
0003FC03F8
0003F803F8
0007F003F8
0007F003F8
0007F007F8
000FF007F8
000FE007F8
000FE007F8
000FE00FF0
001FE00FF0
001FC00FF0
001FC01FE0
003FC01FE0
003F803FC0
003FC03FC0
003FC07F80
007FE0FF80
007F71FF00
007F7FFE00
007F3FFC00
00FE1FF000
00FE07C000
00FE000000
01FE000000
01FC000000
01FC000000
01FC000000
03FC000000
3FFFE00000
3FFFE00000
ENDCHAR

STARTCHAR afii10083
ENCODING 225
SWIDTH 510 0
DWIDTH 26 0
BBX 27 29 1 -1
BITMAP
0007FC00
001FFE00
007F3F00
00FC1F80
01F81FC0
03F81FC0
07F01FC0
07E01FC0
0FE00F80
0FE00700
1FC00000
1FC00000
3FC00000
3F800000
3F800000
3F800000
3F800000
7F800000
7F800000
7F800000
7F800000
7F800000
3F801E00
3FC03C00
3FC07800
1FF1F000
0FFFE000
07FF8000
01FE0000
ENDCHAR

STARTCHAR afii10084
ENCODING 226
SWIDTH 958 0
DWIDTH 48 0
BBX 49 28 0 -1
BITMAP
0FFF07E00FC000
0FFE0FF03FE000
0FFE3FF87FF000
01FE7FF8FFF000
00FCF3F9C7F000
01FDC3FB87F000
01FF83FF07F000
01FF07FE07F000
03FE07FC0FE000
03FC07F80FE000
03F807F00FE000
03F80FE01FC000
07F00FE01FC000
07F00FE01FC000
07F01FE01F8000
0FF01FC03F8000
0FE01FC03F8000
0FE01FC03F0000
0FE03F807F0000
1FC03F807F0E00
1FC03F807E0C00
1FC07F80FE1C00
3FC07F00FE3800
3F807F00FE7000
3F807F00FFE000
3F80FE00FFC000
7F00FE007F8000
000000003E0000
ENDCHAR

STARTCHAR afii10085
ENCODING 227
SWIDTH 531 0
DWIDTH 27 0
BBX 33 37 -4 -9
BITMAP
000F003800
003F807C00
007FC0FE00
007FC0FE00
00FFE0FE00
00CFE07E00
01CFE03E00
018FE01E00
0187E01C00
0007F01C00
0007F01C00
0007F01800
0007F03800
0003F03800
0003F07000
0003F07000
0003F8E000
0003F8C000
0003F9C000
0003FB8000
0003FB8000
0001FF0000
0001FE0000
0001FC0000
0001FC0000
0001F80000
0001F00000
0001E00000
0001C00000
0003800000
1E07000000
3F0E000000
3F1E000000
3FF8000000
3FF0000000
3FE0000000
0F80000000
ENDCHAR

STARTCHAR afii10086
ENCODING 228
SWIDTH 833 0
DWIDTH 42 0
BBX 42 47 0 -9
BITMAP
00000003FC00
0000000FFF00
0000001F3F80
0000003E1F80
0000007E1F80
000000FC1F80
000000FC0F00
000001F80000
000001F80000
000003F80000
000003F80000
000F83F0F800
003FC7F3FC00
00FFE7F7FE00
01FFF7EFFF00
01FC77FC7F00
03F83FF83F80
07F01FF03F80
07F01FE03F80
0FE01FC03F80
0FE01FC03F80
1FC01F803F80
1FC03F807F80
1FC03F807F00
3F803F807F00
3F803F007F00
3F807F00FF00
7F807F00FE00
7F007E00FE00
7F00FE01FC00
7F00FE01FC00
7F00FE03FC00
7F01FE03F800
7F03FF07F000
3F8FFF8FF000
3FFDFBFFE000
1FFBF9FFC000
0FF3F8FF0000
03C3F07C0000
0003F0000000
0807E0000000
1E07E0000000
3F0FC0000000
3F8F80000000
3FFE00000000
1FF800000000
07C000000000
ENDCHAR

STARTCHAR afii10087
ENCODING 229
SWIDTH 615 0
DWIDTH 31 0
BBX 34 29 -2 -1
BITMAP
001E001E00
007F807F00
00FFC0FF80
01FFC1FF80
01DFE3FF80
038FE39F00
030FE70E00
0707FE0000
0007FE0000
0007FC0000
0007F80000
0003F80000
0003F80000
0003F80000
0001FC0000
0001FC0000
0003FC0000
0003FC0000
0007FE0000
000EFE0000
000CFE0000
001C7E0600
1C387F0600
3E707F0E00
7FF07F1C00
7FE03FB800
7FC03FF800
3F801FF000
1E000FC000
ENDCHAR

STARTCHAR afii10088
ENCODING 230
SWIDTH 677 0
DWIDTH 34 0
BBX 33 36 1 -9
BITMAP
0FFF00FE00
0FFE01FE00
1FFE01FC00
01FE01FC00
01FC01FC00
01FC03F800
01FC03F800
03F803F800
03F807F000
03F807F000
07F007F000
07F00FE000
07F00FE000
0FE00FE000
0FE00FE000
0FE01FC000
1FE01FC000
1FC03FC000
1FC07F8000
3FC0FF8000
3F81FF8000
3F83FF0E00
3F8F7F1C00
3FFE7F3C00
3FFC7FFC00
1FF87FEC00
1FE03FD800
07801F3800
0000007800
000000F800
000000F800
000000F800
000001F000
000003F000
00000FC000
00000F0000
ENDCHAR

STARTCHAR afii10089
ENCODING 231
SWIDTH 646 0
DWIDTH 32 0
BBX 34 28 -1 -1
BITMAP
3FFC01FC00
3FFC01FC00
07FC01FC00
03F803FC00
03F803F800
03F803F800
07F803F800
07F007F000
07F007F000
0FF007F000
0FE007F000
0FE00FE000
0FE01FE000
0FF0FFE000
07FFFFC000
07FF9FC000
01FE1FC000
00003FC000
00003F8000
00003F8000
00003F8600
00007F0E00
00007F1C00
00007F3800
00007FF000
00007FE000
00003FC000
00001F0000
ENDCHAR

STARTCHAR afii10090
ENCODING 232
SWIDTH 948 0
DWIDTH 47 0
BBX 48 28 0 -1
BITMAP
0FFF01FC03F8
0FFF01FC07F8
03FE01FC07F0
01FE03FC07F0
01FE03F807F0
01FC03F80FE0
01FC07F80FE0
03FC07F00FE0
03F807F01FE0
03F807F01FC0
07F80FE01FC0
07F00FE03FC0
07F00FE03F80
0FF01FE03F80
0FE01FC07F80
0FE01FC07F00
1FE03FC07F00
1FC07F80FF00
1FC0FF81FE00
1FC1FF83FE1C
3FC3FF07FE18
3F87FF0FFC38
3F8F7F3DFC70
3FFC7FF9FCE0
3FF87FF1FFC0
1FF07FE1FF80
1FC03F80FF00
07000E007C00
ENDCHAR

STARTCHAR afii10091
ENCODING 233
SWIDTH 948 0
DWIDTH 47 0
BBX 47 36 0 -9
BITMAP
0FFF01FE03F8
0FFF01FC03F8
03FE01FC07F0
01FE03FC07F0
01FE03F807F0
01FC03F80FF0
01FC07F80FE0
03FC07F00FE0
03F807F01FE0
03F807F01FC0
07F80FE01FC0
07F00FE03FC0
07F00FE03F80
0FF01FE03F80
0FE01FC03F80
0FE01FC07F00
1FE03FC07F00
1FE07F80FF00
1FC0FF81FE00
1FC1FF83FE00
3FC3FF07FE00
3F87FF0FFE38
3F8E7F3DFC38
3FFC7FF9FC70
3FF87FF1FFD0
1FF07FE1FFF0
1FC03F80FFA0
07000E007E60
0000000000E0
0000000001E0
0000000003E0
0000000003E0
0000000003C0
0000000007C0
000000001F80
000000003F00
ENDCHAR

STARTCHAR afii10092
ENCODING 234
SWIDTH 646 0
DWIDTH 32 0
BBX 31 29 0 -1
BITMAP
07E0E000
0FFFE000
1FFFE000
3FFFE000
30FBC000
7003C000
00078000
000F8000
001F0000
003E0000
007EFF00
00FFFFC0
00FFCFE0
01FF07F0
03FE03F8
03FC03F8
07FC03F8
07F803F8
07F803F8
07F807F8
07F007F8
07F007F0
07F00FF0
07F00FE0
03F01FC0
03F83FC0
01FC7F00
007FFC00
001FF000
ENDCHAR

STARTCHAR afii10093
ENCODING 235
SWIDTH 917 0
DWIDTH 46 0
BBX 44 28 1 -1
BITMAP
1FFE0007FF80
1FFC0007FF80
3FFC000FFF80
03FC00007F00
03F800007F00
03F800007F00
03F80000FE00
03F00000FE00
07F00000FE00
07F00001FE00
07E3FC01FC00
0FEFFE01FC00
0FFE3F81FC00
1FF83F83F800
1FF01FC3F800
1FE01FC3F800
3FE01FC7F800
3FC01FC7F000
3FC03FC7F000
3FC03FC7F0E0
3F803FCFE0C0
3F807F8FE1C0
3F807F8FE380
3F80FF0FE700
1FC1FE0FFE00
0FE3F80FFC00
07FFF007F800
01FF8003E000
ENDCHAR

STARTCHAR afii10094
ENCODING 236
SWIDTH 604 0
DWIDTH 30 0
BBX 28 28 1 -1
BITMAP
3FFC0000
3FFC0000
3FFC0000
03F80000
03F80000
03F80000
07F00000
07F00000
07F00000
07F00000
0FE7FC00
0FFFFF00
0FFC7F80
1FF83F80
1FF01FC0
1FE01FC0
3FE01FC0
3FC01FC0
3FC01FC0
3FC03FC0
3F803FC0
3F807F80
3F807F80
3F80FF00
1FC1FE00
0FE3F800
07FFF000
01FF8000
ENDCHAR

STARTCHAR afii10095
ENCODING 237
SWIDTH 521 0
DWIDTH 26 0
BBX 27 29 -1 -1
BITMAP
0007E000
003FFC00
007FFE00
01F07F00
03C03F80
07801F80
07001F80
00001FC0
00001FC0
00001FC0
00001FC0
00001FC0
00001FC0
003FFFC0
003FFFC0
007FFF80
00003F80
00007F80
00007F80
0800FF00
3E00FF00
7F01FE00
7F01FC00
7F03FC00
7F03F800
3F07F000
1F1FC000
0FFF8000
03FC0000
ENDCHAR

STARTCHAR afii10096
ENCODING 238
SWIDTH 885 0
DWIDTH 44 0
BBX 44 29 0 -1
BITMAP
07FF001FF000
0FFE00FFFC00
0FFE01FC7E00
01FE03F83F00
01FE07F01F80
01FC0FE01F80
01FC1FE01F80
01FC1FC01FC0
03FC3FC01FC0
03F83F801FC0
03F87F801FC0
03F87F801FC0
07FFFF003FC0
07FFFF003FC0
07FFFF003FC0
07F0FF003FC0
0FE0FF007F80
0FE0FE007F80
0FE0FE007F80
1FC0FE00FF00
1FC0FE00FF00
1FC07E00FE00
1FC07E01FE00
3F807E01FC00
3F803E03F800
3F801F07F000
7F801F8FE000
7F0007FF8000
000001FE0000
ENDCHAR

STARTCHAR afii10097
ENCODING 239
SWIDTH 667 0
DWIDTH 33 0
BBX 37 28 -3 -1
BITMAP
00007FFFC0
0003FFFF80
000FFFFF80
001FF03F80
003FC07F00
007FC07F00
007F807F00
007F80FF00
007F00FE00
007F00FE00
007F00FE00
003F81FC00
001FC1FC00
0007FFFC00
0007FFFC00
001FC3F800
003F83F800
007F07F800
00FE07F000
00FE07F000
01FC07F0E0
03FC0FF1C0
03F80FE380
07F00FE700
0FF00FFE00
3FE00FFC00
7FE007F800
000003E000
ENDCHAR

STARTCHAR afii61352
ENCODING 240
SWIDTH 1115 0
DWIDTH 56 0
BBX 60 39 -2 -1
BITMAP
00000000001F0000
0007FFC0007F8000
000FFFC000FFC000
000FFFC001FFE000
00003FE003FFE000
00003FE003FFC000
00003FE0078FC000
00007FE007070000
00007FF007000000
00007FF00E000000
00007FF00E000000
0000EFF80E00FC00
0000E7F80E07FF00
0000E7F81C0F8F80
0000E7FC1C1F0780
0001C7FC1C3E07C0
0001C3FC3C7E07C0
0001C3FC387E07C0
0003C3FE38FC0FC0
000381FE38FC0FC0
000381FE70FC0FC0
000381FF71F80FC0
000700FF71F81F80
000700FF71F81F80
000700FFE1F81F00
000700FFE0F83F00
000E007FE0F87E00
000E007FE07CFC00
000E007FC03FF000
001C003FC00FC000
001C003FC0000000
1C1C003F80000000
3E38001F80000000
7FF8001F80000000
7FF0001F81FFF000
7FF0001F03FFF000
7FE0000F03FFE000
3FC0000F03FFE000
0F00000000000000
ENDCHAR

STARTCHAR afii10071
ENCODING 241
SWIDTH 500 0
DWIDTH 25 0
BBX 28 39 0 -1
BITMAP
003C0380
007C07C0
00FE0FE0
00FE0FE0
007C0FE0
003807C0
00000000
00000000
00000000
00000000
0007F800
001FFE00
007E7F00
00FC3F80
01F81F80
03F01F80
07F01F80
07E03F80
0FE03F80
1FE03F00
1FC07F00
1FC0FE00
3FC1FC00
3F83F800
3F87E000
7F9FC000
7FFE0000
7FF80000
7FC00000
7F800000
7F800000
7F800000
3FC01C00
3FC03C00
3FE0F800
1FFFE000
0FFFC000
07FF0000
00F80000
ENDCHAR

STARTCHAR afii10099
ENCODING 242
SWIDTH 635 0
DWIDTH 32 0
BBX 32 48 0 -9
BITMAP
003FE000
01FFE000
01FFE000
001FE000
001FC000
001FC000
03FFFFF0
07FFFFF0
003F8000
003F8000
007F0000
007F03F0
007F0FF8
00FF1FFC
00FE3FFC
00FE7BFC
00FEF1FC
01FDC1FC
01FF81FC
01FF03FC
03FE03FC
03FC03FC
03F803F8
03F807F8
07F807F8
07F007F0
07F007F0
0FF00FF0
0FE00FE0
0FE01FE0
0FE01FE0
1FC01FC0
1FC01FC0
1FC03F80
3FC03F80
3F807F00
3F807F00
3F807E00
7F00FE00
0000FC00
0001F800
0001F800
0003F000
0003E000
0007C000
001F0000
003E0000
00200000
ENDCHAR

STARTCHAR afii10100
ENCODING 243
SWIDTH 563 0
DWIDTH 28 0
BBX 34 39 -2 0
BITMAP
0000007000
000000F800
000001F800
000003F800
000007F800
000007E000
00000F8000
00001E0000
0000180000
0000000000
0000000000
0000000000
00FFFFFF00
01FFFFFF00
001FF07F00
001FE01E00
001FC00E00
001FC00E00
001FC00C00
003F800C00
003F801C00
003F800000
007F800000
007F000000
007F000000
007F000000
00FE000000
00FE000000
00FE000000
01FE000000
01FC000000
01FC000000
01FC000000
03F8000000
03F8000000
03F8000000
0FFC000000
3FFF800000
7FFF800000
ENDCHAR

STARTCHAR afii10101
ENCODING 244
SWIDTH 510 0
DWIDTH 26 0
BBX 27 29 0 -1
BITMAP
0007F800
001FFE00
007F3F00
00FC1F80
01F81F80
03F81FC0
03F01FC0
07F01FC0
0FE00F80
0FE00700
1FC00000
1FC00000
1FC00000
3FFFC000
3FFFC000
3FFFC000
3F800000
7F800000
7F800000
7F800000
7F800000
7F800000
3F801E00
3F803C00
3FC07800
1FE1F000
0FFFE000
07FF8000
01FE0000
ENDCHAR

STARTCHAR afii10102
ENCODING 245
SWIDTH 500 0
DWIDTH 25 0
BBX 27 29 -1 -1
BITMAP
000FF800
007FFE00
00FC7F00
01F81F80
01F01F80
03F01F80
03F00F80
03F80F80
03F80200
03FE0000
03FF0000
01FF8000
01FFC000
00FFE000
007FF000
003FF800
001FFC00
0007FC00
0003FE00
0001FE00
1E00FE00
3F00FE00
3F00FC00
3F00FC00
3F00F800
3F81F800
1FC7F000
0FFFC000
03FF0000
ENDCHAR

STARTCHAR afii10103
ENCODING 246
SWIDTH 396 0
DWIDTH 20 0
BBX 19 39 1 -1
BITMAP
001E00
003F80
007F80
007F80
007F80
003F80
001E00
000000
000000
000000
000000
0FFF00
1FFE00
1FFE00
01FE00
01FC00
01FC00
01FC00
03FC00
03F800
03F800
03F800
07F000
07F000
07F000
0FF000
0FE000
0FE000
0FE000
1FC000
1FC380
1FC300
3FC700
3F8E00
3F9C00
3FF800
3FF000
1FE000
0F8000
ENDCHAR

STARTCHAR afii10104
ENCODING 247
SWIDTH 396 0
DWIDTH 20 0
BBX 22 39 2 -1
BITMAP
03C0F0
07C1F0
0FE3F8
0FE3F8
07E1F0
07C1F0
000000
000000
000000
000000
000000
01FE00
1FFE00
1FFE00
01FE00
01FC00
01FC00
01FC00
01FC00
03F800
03F800
03F800
07F000
07F000
07F000
0FF000
0FE000
0FE000
0FE000
1FC000
1FC380
1FC300
3FC700
3F8E00
3F9C00
3FF800
3FF000
1FE000
0F8000
ENDCHAR

STARTCHAR afii10105
ENCODING 248
SWIDTH 396 0
DWIDTH 20 0
BBX 29 47 -9 -9
BITMAP
00000780
00000FE0
00001FE0
00001FE0
00001FE0
00000FE0
00000780
00000000
00000000
00000000
00000000
0003FFC0
0003FFC0
0003FFC0
00003F80
00003F80
00003F80
00003F80
00007F00
00007F00
00007F00
00007F00
0000FF00
0000FE00
0000FE00
0000FE00
0001FE00
0001FC00
0001FC00
0001FC00
0001FC00
0003F800
0003F800
0003F800
0003F800
0007F000
0007F000
0007F000
0007E000
000FE000
1E0FC000
3F0FC000
3F1F8000
3F9F0000
3FFE0000
1FF80000
03C00000
ENDCHAR

STARTCHAR afii10106
ENCODING 249
SWIDTH 969 0
DWIDTH 48 0
BBX 50 29 -3 -1
BITMAP
0003FFFFF80000
0003FFFFF00000
0000FF07F00000
00007C07F00000
0000780FE00000
0000780FE00000
0000700FE00000
0000701FE00000
0000601FC00000
0000E01FC00000
0000E01FC00000
0000C03F9FF000
0001C03FFFF800
0001C03FF1FC00
0001807FE0FE00
0003807FC07F00
0003807F807F00
0003007F807F00
000700FF007F00
000700FF00FF00
000E00FE00FF00
000E00FE00FF00
1E1C00FE01FE00
3F1C00FE01FE00
3FF800FE03FC00
3FF8007F07F800
3FF0003F8FF000
1FE0001FFFC000
0F800007FE0000
ENDCHAR

STARTCHAR afii10107
ENCODING 250
SWIDTH 917 0
DWIDTH 46 0
BBX 45 29 0 -1
BITMAP
00FF00FE0000
0FFF00FE0000
0FFE00FE0000
01FE01FC0000
00FE01FC0000
01FC01FC0000
01FC03FC0000
01FC03F80000
03FC03F80000
03F803F80000
03F807F80000
03F807F3FE00
07FFFFFFFF00
07FFFFFF3FC0
07FFFFFC1FC0
07F00FF80FE0
0FE00FF00FE0
0FE01FF00FE0
0FE01FE00FE0
1FE01FE01FE0
1FC01FE01FE0
1FC01FC01FE0
1FC01FC03FC0
3F801FC03F80
3F801FC07F80
3F800FE0FF00
7F8007F3FC00
7F0003FFF800
000000FFC000
ENDCHAR

STARTCHAR afii10108
ENCODING 251
SWIDTH 677 0
DWIDTH 34 0
BBX 36 39 -1 -1
BITMAP
001FF00000
00FFF00000
00FFF00000
000FE00000
000FE00000
000FE00000
01FFFFF800
03FFFFF800
001FC00000
001FC00000
003F806000
003F83F800
003F87FC00
007F1FFE00
007F3FFE00
007F78FE00
00FFF0FE00
00FFC0FE00
00FF81FE00
00FF01FC00
01FE01FC00
01FC03FC00
01FC03F800
03FC03F800
03F803F800
03F807F000
07F807F000
07F007F000
07F00FE000
07F00FE000
0FE00FE000
0FE00FC1C0
0FE01FC380
1FE01FC700
1FC01FCE00
1FC01FFE00
3FC01FF800
3F800FF000
000007C000
ENDCHAR

STARTCHAR afii10109
ENCODING 252
SWIDTH 646 0
DWIDTH 32 0
BBX 35 39 0 0
BITMAP
0000006000
000001F800
000003F800
000003F800
000007F000
00000FE000
00000F8000
00001C0000
0000100000
0000000000
0000000000
003F001E00
0FFF007F80
0FFF00FF80
01FE00FF80
00FE01FF80
00FE039F80
01FC030700
01FC070000
01FC0E0000
03FC0C0000
03F81C0000
03F8380000
03FFF00000
07FFFC0000
07FFFC0000
07F1FE0000
07F0FE0000
0FE0FF0000
0FE07F0000
0FE07F0000
1FE07F0000
1FC07F8000
1FC03F8000
1FC03F8000
3F803FC000
3F803FE000
3F801FF000
7F801FF000
ENDCHAR

STARTCHAR section
ENCODING 253
SWIDTH 552 0
DWIDTH 28 0
BBX 30 47 0 -9
BITMAP
0000FF00
0003FFC0
000FC7F0
001F83F0
001F03F0
003F01F0
003F01F0
003F81F0
003F8000
003FC000
001FC000
001FE000
000FF000
000FF000
000FF800
003FFC00
007BFC00
00F1FE00
01E1FF00
03E0FF00
03E07F80
07E07F80
07E03F80
07F03F80
07F01F80
07F81F80
03F81F00
03FC1F00
03FE1E00
01FE3C00
00FF7800
00FFF000
007FC000
003FC000
003FE000
001FE000
000FF000
000FF000
0007F000
1E03F000
3E03F000
3F03F000
3F03E000
3F03E000
1F8FC000
0FFF0000
03FC0000
ENDCHAR

STARTCHAR afii10110
ENCODING 254
SWIDTH 531 0
DWIDTH 27 0
BBX 33 46 -4 -9
BITMAP
0000701800
0000F83800
0000FC7000
0000FFE000
00007FC000
00001F8000
0000000000
0000000000
0000000000
000F003800
003F807C00
007FC0FE00
007FC0FE00
00FFE0FE00
00CFE07E00
01CFE03E00
018FE01E00
0187E01C00
0007F01C00
0007F01C00
0007F01800
0007F03800
0003F03800
0003F07000
0003F07000
0003F8E000
0003F8C000
0003F9C000
0003FB8000
0003FB8000
0001FF0000
0001FE0000
0001FC0000
0001FC0000
0001F80000
0001F00000
0001E00000
0001C00000
0003800000
1E07000000
3F0E000000
3F1E000000
3FF8000000
3FF0000000
3FE0000000
0F80000000
ENDCHAR

STARTCHAR afii10193
ENCODING 255
SWIDTH 677 0
DWIDTH 34 0
BBX 34 36 0 -9
BITMAP
07FF807F00
07FF00FF00
0FFF00FE00
00FF00FE00
00FE00FE00
00FE01FC00
00FE01FC00
01FC01FC00
01FC03F800
01FC03F800
03F803F800
03F807F000
03F807F000
07F007F000
07F007F000
07F00FE000
0FF00FE000
0FE01FE000
0FE03FC000
1FE07FC380
1FC0FFC300
1FC1FF8700
1FC7BF8E00
1FFF3F9C00
1FFE3FF800
0FF83FF000
0FF01FE000
03C00F8000
0780000000
0F00000000
0F00000000
0F00000000
0F00000000
1E00000000
3C00000000
1000000000
ENDCHAR
ENDFONT
